  0
SECTION
  2
HEADER
  9
$ACADVER
  1
AC1018
  9
$ACADMAINTVER
 70
0
  9
$DWGCODEPAGE
  3
ANSI_1252
  9
$LASTSAVEDBY
  1
ezdxf
  9
$INSBASE
 10
0.0
 20
0.0
 30
0.0
  9
$EXTMIN
 10
1e+20
 20
1e+20
 30
1e+20
  9
$EXTMAX
 10
-1e+20
 20
-1e+20
 30
-1e+20
  9
$LIMMIN
 10
0.0
 20
0.0
  9
$LIMMAX
 10
420.0
 20
297.0
  9
$ORTHOMODE
 70
0
  9
$REGENMODE
 70
1
  9
$FILLMODE
 70
1
  9
$QTEXTMODE
 70
0
  9
$MIRRTEXT
 70
1
  9
$LTSCALE
 40
1.0
  9
$ATTMODE
 70
1
  9
$TEXTSIZE
 40
2.5
  9
$TRACEWID
 40
1.0
  9
$TEXTSTYLE
  7
OpenSans
  9
$CLAYER
  8
0
  9
$CELTYPE
  6
ByLayer
  9
$CECOLOR
 62
256
  9
$CELTSCALE
 40
1.0
  9
$DISPSILH
 70
0
  9
$DIMSCALE
 40
1.0
  9
$DIMASZ
 40
0.175
  9
$DIMEXO
 40
0.125
  9
$DIMDLI
 40
3.75
  9
$DIMRND
 40
0.0
  9
$DIMDLE
 40
0.0
  9
$DIMEXE
 40
0.375
  9
$DIMTP
 40
0.0
  9
$DIMTM
 40
0.0
  9
$DIMTXT
 40
0.25
  9
$DIMCEN
 40
2.5
  9
$DIMTSZ
 40
0.0
  9
$DIMTOL
 70
0
  9
$DIMLIM
 70
0
  9
$DIMTIH
 70
0
  9
$DIMTOH
 70
0
  9
$DIMSE1
 70
0
  9
$DIMSE2
 70
0
  9
$DIMTAD
 70
1
  9
$DIMZIN
 70
12
  9
$DIMBLK
  1
ARCHTICK
  9
$DIMASO
 70
1
  9
$DIMSHO
 70
1
  9
$DIMPOST
  1

  9
$DIMAPOST
  1

  9
$DIMALT
 70
0
  9
$DIMALTD
 70
3
  9
$DIMALTF
 40
0.03937007874
  9
$DIMLFAC
 40
100.0
  9
$DIMTOFL
 70
1
  9
$DIMTVP
 40
0.0
  9
$DIMTIX
 70
0
  9
$DIMSOXD
 70
0
  9
$DIMSAH
 70
0
  9
$DIMBLK1
  1

  9
$DIMBLK2
  1

  9
$DIMSTYLE
  2
EZDXF
  9
$DIMCLRD
 70
0
  9
$DIMCLRE
 70
0
  9
$DIMCLRT
 70
0
  9
$DIMTFAC
 40
0.5
  9
$DIMGAP
 40
0.1
  9
$DIMJUST
 70
0
  9
$DIMSD1
 70
0
  9
$DIMSD2
 70
0
  9
$DIMTOLJ
 70
0
  9
$DIMTZIN
 70
8
  9
$DIMALTZ
 70
0
  9
$DIMALTTZ
 70
0
  9
$DIMUPT
 70
1
  9
$DIMDEC
 70
2
  9
$DIMTDEC
 70
2
  9
$DIMALTU
 70
2
  9
$DIMALTTD
 70
3
  9
$DIMTXSTY
  7
OpenSansCondensed-Light
  9
$DIMAUNIT
 70
0
  9
$DIMADEC
 70
2
  9
$DIMALTRND
 40
0.0
  9
$DIMAZIN
 70
3
  9
$DIMDSEP
 70
46
  9
$DIMATFIT
 70
3
  9
$DIMFRAC
 70
0
  9
$DIMLDRBLK
  1

  9
$DIMLUNIT
 70
2
  9
$DIMLWD
 70
-2
  9
$DIMLWE
 70
-2
  9
$DIMTMOVE
 70
2
  9
$LUNITS
 70
2
  9
$LUPREC
 70
4
  9
$SKETCHINC
 40
1.0
  9
$FILLETRAD
 40
10.0
  9
$AUNITS
 70
0
  9
$AUPREC
 70
2
  9
$MENU
  1
.
  9
$ELEVATION
 40
0.0
  9
$PELEVATION
 40
0.0
  9
$THICKNESS
 40
0.0
  9
$LIMCHECK
 70
0
  9
$CHAMFERA
 40
0.0
  9
$CHAMFERB
 40
0.0
  9
$CHAMFERC
 40
0.0
  9
$CHAMFERD
 40
0.0
  9
$SKPOLY
 70
0
  9
$TDCREATE
 40
2461113.420729167
  9
$TDUCREATE
 40
2458532.153996898
  9
$TDUPDATE
 40
2461113.420729167
  9
$TDUUPDATE
 40
2458532.1544311
  9
$TDINDWG
 40
0.0
  9
$TDUSRTIMER
 40
0.0
  9
$USRTIMER
 70
1
  9
$ANGBASE
 50
0.0
  9
$ANGDIR
 70
0
  9
$PDMODE
 70
0
  9
$PDSIZE
 40
0.0
  9
$PLINEWID
 40
0.0
  9
$SPLFRAME
 70
0
  9
$SPLINETYPE
 70
6
  9
$SPLINESEGS
 70
8
  9
$HANDSEED
  5
219
  9
$SURFTAB1
 70
6
  9
$SURFTAB2
 70
6
  9
$SURFTYPE
 70
6
  9
$SURFU
 70
6
  9
$SURFV
 70
6
  9
$UCSBASE
  2

  9
$UCSNAME
  2

  9
$UCSORG
 10
0.0
 20
0.0
 30
0.0
  9
$UCSXDIR
 10
1.0
 20
0.0
 30
0.0
  9
$UCSYDIR
 10
0.0
 20
1.0
 30
0.0
  9
$UCSORTHOREF
  2

  9
$UCSORTHOVIEW
 70
0
  9
$UCSORGTOP
 10
0.0
 20
0.0
 30
0.0
  9
$UCSORGBOTTOM
 10
0.0
 20
0.0
 30
0.0
  9
$UCSORGLEFT
 10
0.0
 20
0.0
 30
0.0
  9
$UCSORGRIGHT
 10
0.0
 20
0.0
 30
0.0
  9
$UCSORGFRONT
 10
0.0
 20
0.0
 30
0.0
  9
$UCSORGBACK
 10
0.0
 20
0.0
 30
0.0
  9
$PUCSBASE
  2

  9
$PUCSNAME
  2

  9
$PUCSORG
 10
0.0
 20
0.0
 30
0.0
  9
$PUCSXDIR
 10
1.0
 20
0.0
 30
0.0
  9
$PUCSYDIR
 10
0.0
 20
1.0
 30
0.0
  9
$PUCSORTHOREF
  2

  9
$PUCSORTHOVIEW
 70
0
  9
$PUCSORGTOP
 10
0.0
 20
0.0
 30
0.0
  9
$PUCSORGBOTTOM
 10
0.0
 20
0.0
 30
0.0
  9
$PUCSORGLEFT
 10
0.0
 20
0.0
 30
0.0
  9
$PUCSORGRIGHT
 10
0.0
 20
0.0
 30
0.0
  9
$PUCSORGFRONT
 10
0.0
 20
0.0
 30
0.0
  9
$PUCSORGBACK
 10
0.0
 20
0.0
 30
0.0
  9
$USERI1
 70
0
  9
$USERI2
 70
0
  9
$USERI3
 70
0
  9
$USERI4
 70
0
  9
$USERI5
 70
0
  9
$USERR1
 40
0.0
  9
$USERR2
 40
0.0
  9
$USERR3
 40
0.0
  9
$USERR4
 40
0.0
  9
$USERR5
 40
0.0
  9
$WORLDVIEW
 70
1
  9
$SHADEDGE
 70
3
  9
$SHADEDIF
 70
70
  9
$TILEMODE
 70
1
  9
$MAXACTVP
 70
64
  9
$PINSBASE
 10
0.0
 20
0.0
 30
0.0
  9
$PLIMCHECK
 70
0
  9
$PEXTMIN
 10
1e+20
 20
1e+20
 30
1e+20
  9
$PEXTMAX
 10
-1e+20
 20
-1e+20
 30
-1e+20
  9
$PLIMMIN
 10
0.0
 20
0.0
  9
$PLIMMAX
 10
420.0
 20
297.0
  9
$UNITMODE
 70
0
  9
$VISRETAIN
 70
1
  9
$PLINEGEN
 70
0
  9
$PSLTSCALE
 70
1
  9
$TREEDEPTH
 70
3020
  9
$CMLSTYLE
  2
Standard
  9
$CMLJUST
 70
0
  9
$CMLSCALE
 40
20.0
  9
$PROXYGRAPHICS
 70
1
  9
$MEASUREMENT
 70
1
  9
$CELWEIGHT
370
-1
  9
$ENDCAPS
280
0
  9
$JOINSTYLE
280
0
  9
$LWDISPLAY
290
0
  9
$INSUNITS
 70
6
  9
$HYPERLINKBASE
  1

  9
$STYLESHEET
  1

  9
$XEDIT
290
1
  9
$CEPSNTYPE
380
0
  9
$PSTYLEMODE
290
1
  9
$FINGERPRINTGUID
  2
{3612499B-6C4F-4D45-BE9D-8028D369581F}
  9
$VERSIONGUID
  2
{47DCFC71-F91B-4B40-BE05-DE071ABAA8A5}
  9
$EXTNAMES
290
1
  9
$PSVPSCALE
 40
0.0
  9
$OLESTARTUP
290
0
  9
$SORTENTS
280
127
  9
$INDEXCTL
280
0
  9
$HIDETEXT
280
1
  9
$XCLIPFRAME
290
1
  9
$HALOGAP
280
0
  9
$OBSCOLOR
 70
257
  9
$OBSLTYPE
280
0
  9
$INTERSECTIONDISPLAY
280
0
  9
$INTERSECTIONCOLOR
 70
257
  9
$DIMASSOC
280
2
  9
$PROJECTNAME
  1

  0
ENDSEC
  0
SECTION
  2
CLASSES
  0
CLASS
  1
ACDBDICTIONARYWDFLT
  2
AcDbDictionaryWithDefault
  3
ObjectDBX Classes
 90
0
 91
0
280
0
281
0
  0
CLASS
  1
SUN
  2
AcDbSun
  3
SCENEOE
 90
1153
 91
0
280
0
281
0
  0
CLASS
  1
VISUALSTYLE
  2
AcDbVisualStyle
  3
ObjectDBX Classes
 90
4095
 91
0
280
0
281
0
  0
CLASS
  1
MATERIAL
  2
AcDbMaterial
  3
ObjectDBX Classes
 90
1153
 91
0
280
0
281
0
  0
CLASS
  1
SCALE
  2
AcDbScale
  3
ObjectDBX Classes
 90
1153
 91
0
280
0
281
0
  0
CLASS
  1
TABLESTYLE
  2
AcDbTableStyle
  3
ObjectDBX Classes
 90
4095
 91
0
280
0
281
0
  0
CLASS
  1
MLEADERSTYLE
  2
AcDbMLeaderStyle
  3
ACDB_MLEADERSTYLE_CLASS
 90
4095
 91
0
280
0
281
0
  0
CLASS
  1
DICTIONARYVAR
  2
AcDbDictionaryVar
  3
ObjectDBX Classes
 90
0
 91
0
280
0
281
0
  0
CLASS
  1
CELLSTYLEMAP
  2
AcDbCellStyleMap
  3
ObjectDBX Classes
 90
1152
 91
0
280
0
281
0
  0
CLASS
  1
MENTALRAYRENDERSETTINGS
  2
AcDbMentalRayRenderSettings
  3
SCENEOE
 90
1024
 91
0
280
0
281
0
  0
CLASS
  1
ACDBDETAILVIEWSTYLE
  2
AcDbDetailViewStyle
  3
ObjectDBX Classes
 90
1025
 91
0
280
0
281
0
  0
CLASS
  1
ACDBSECTIONVIEWSTYLE
  2
AcDbSectionViewStyle
  3
ObjectDBX Classes
 90
1025
 91
0
280
0
281
0
  0
CLASS
  1
RASTERVARIABLES
  2
AcDbRasterVariables
  3
ISM
 90
0
 91
0
280
0
281
0
  0
CLASS
  1
ACDBPLACEHOLDER
  2
AcDbPlaceHolder
  3
ObjectDBX Classes
 90
0
 91
0
280
0
281
0
  0
CLASS
  1
LAYOUT
  2
AcDbLayout
  3
ObjectDBX Classes
 90
0
 91
0
280
0
281
0
  0
ENDSEC
  0
SECTION
  2
TABLES
  0
TABLE
  2
VPORT
  5
8
330
0
100
AcDbSymbolTable
 70
1
  0
VPORT
  5
23
330
8
100
AcDbSymbolTableRecord
100
AcDbViewportTableRecord
  2
*Active
 70
0
 10
0.0
 20
0.0
 11
1.0
 21
1.0
 12
0.0
 22
0.0
 13
0.0
 23
0.0
 14
0.5
 24
0.5
 15
0.5
 25
0.5
 16
0.0
 26
0.0
 36
1.0
 17
0.0
 27
0.0
 37
0.0
 40
1000.0
 41
1.34
 42
50.0
 43
0.0
 44
0.0
 50
0.0
 51
0.0
 71
0
 72
1000
 73
1
 74
3
 75
0
 76
0
 77
0
 78
0
281
0
 65
0
146
0.0
  0
ENDTAB
  0
TABLE
  2
LTYPE
  5
2
330
0
100
AcDbSymbolTable
 70
21
  0
LTYPE
  5
24
330
2
100
AcDbSymbolTableRecord
100
AcDbLinetypeTableRecord
  2
ByBlock
 70
0
  3

 72
65
 73
0
 40
0.0
  0
LTYPE
  5
25
330
2
100
AcDbSymbolTableRecord
100
AcDbLinetypeTableRecord
  2
ByLayer
 70
0
  3

 72
65
 73
0
 40
0.0
  0
LTYPE
  5
26
330
2
100
AcDbSymbolTableRecord
100
AcDbLinetypeTableRecord
  2
Continuous
 70
0
  3

 72
65
 73
0
 40
0.0
  0
LTYPE
  5
2F
330
2
100
AcDbSymbolTableRecord
100
AcDbLinetypeTableRecord
  2
CENTER
 70
0
  3
Center ____ _ ____ _ ____ _ ____ _ ____ _ ____
 72
65
 73
4
 40
5.08
 49
3.175
 74
0
 49
-0.635
 74
0
 49
0.635
 74
0
 49
-0.635
 74
0
  0
LTYPE
  5
30
330
2
100
AcDbSymbolTableRecord
100
AcDbLinetypeTableRecord
  2
CENTERX2
 70
0
  3
Center (2x) ________  __  ________  __  ________
 72
65
 73
4
 40
8.89
 49
6.35
 74
0
 49
-0.635
 74
0
 49
1.27
 74
0
 49
-0.635
 74
0
  0
LTYPE
  5
31
330
2
100
AcDbSymbolTableRecord
100
AcDbLinetypeTableRecord
  2
CENTER2
 70
0
  3
Center (.5x) ____ _ ____ _ ____ _ ____ _ ____
 72
65
 73
4
 40
2.54
 49
1.587
 74
0
 49
-0.318
 74
0
 49
0.318
 74
0
 49
-0.318
 74
0
  0
LTYPE
  5
32
330
2
100
AcDbSymbolTableRecord
100
AcDbLinetypeTableRecord
  2
DASHED
 70
0
  3
Dashed __ __ __ __ __ __ __ __ __ __ __ __ __ _
 72
65
 73
2
 40
1.524
 49
1.27
 74
0
 49
-0.254
 74
0
  0
LTYPE
  5
33
330
2
100
AcDbSymbolTableRecord
100
AcDbLinetypeTableRecord
  2
DASHEDX2
 70
0
  3
Dashed (2x) ____  ____  ____  ____  ____  ____
 72
65
 73
2
 40
3.048
 49
2.54
 74
0
 49
-0.508
 74
0
  0
LTYPE
  5
34
330
2
100
AcDbSymbolTableRecord
100
AcDbLinetypeTableRecord
  2
DASHED2
 70
0
  3
Dashed (.5x) _ _ _ _ _ _ _ _ _ _ _ _ _ _
 72
65
 73
2
 40
0.762
 49
0.635
 74
0
 49
-0.127
 74
0
  0
LTYPE
  5
35
330
2
100
AcDbSymbolTableRecord
100
AcDbLinetypeTableRecord
  2
PHANTOM
 70
0
  3
Phantom ______  __  __  ______  __  __  ______
 72
65
 73
6
 40
6.35
 49
3.175
 74
0
 49
-0.635
 74
0
 49
0.635
 74
0
 49
-0.635
 74
0
 49
0.635
 74
0
 49
-0.635
 74
0
  0
LTYPE
  5
36
330
2
100
AcDbSymbolTableRecord
100
AcDbLinetypeTableRecord
  2
PHANTOMX2
 70
0
  3
Phantom (2x)____________    ____    ____    ____________
 72
65
 73
6
 40
10.795
 49
6.35
 74
0
 49
-0.635
 74
0
 49
1.27
 74
0
 49
-0.635
 74
0
 49
1.27
 74
0
 49
-0.635
 74
0
  0
LTYPE
  5
37
330
2
100
AcDbSymbolTableRecord
100
AcDbLinetypeTableRecord
  2
PHANTOM2
 70
0
  3
Phantom (.5x) ___ _ _ ___ _ _ ___ _ _ ___ _ _ ___
 72
65
 73
6
 40
3.175
 49
1.587
 74
0
 49
-0.318
 74
0
 49
0.318
 74
0
 49
-0.318
 74
0
 49
0.318
 74
0
 49
-0.318
 74
0
  0
LTYPE
  5
38
330
2
100
AcDbSymbolTableRecord
100
AcDbLinetypeTableRecord
  2
DASHDOT
 70
0
  3
Dash dot __ . __ . __ . __ . __ . __ . __ . __
 72
65
 73
4
 40
3.556
 49
2.54
 74
0
 49
-0.508
 74
0
 49
0.0
 74
0
 49
-0.508
 74
0
  0
LTYPE
  5
39
330
2
100
AcDbSymbolTableRecord
100
AcDbLinetypeTableRecord
  2
DASHDOTX2
 70
0
  3
Dash dot (2x) ____  .  ____  .  ____  .  ____
 72
65
 73
4
 40
6.096
 49
5.08
 74
0
 49
-0.508
 74
0
 49
0.0
 74
0
 49
-0.508
 74
0
  0
LTYPE
  5
3A
330
2
100
AcDbSymbolTableRecord
100
AcDbLinetypeTableRecord
  2
DASHDOT2
 70
0
  3
Dash dot (.5x) _ . _ . _ . _ . _ . _ . _ . _
 72
65
 73
4
 40
1.778
 49
1.27
 74
0
 49
-0.254
 74
0
 49
0.0
 74
0
 49
-0.254
 74
0
  0
LTYPE
  5
3B
330
2
100
AcDbSymbolTableRecord
100
AcDbLinetypeTableRecord
  2
DOT
 70
0
  3
Dot .  .  .  .  .  .  .  .  .  .  .  .  .  .  .  .
 72
65
 73
2
 40
0.508
 49
0.0
 74
0
 49
-0.508
 74
0
  0
LTYPE
  5
3C
330
2
100
AcDbSymbolTableRecord
100
AcDbLinetypeTableRecord
  2
DOTX2
 70
0
  3
Dot (2x) .    .    .    .    .    .    .    . 
 72
65
 73
2
 40
1.016
 49
0.0
 74
0
 49
-1.016
 74
0
  0
LTYPE
  5
3D
330
2
100
AcDbSymbolTableRecord
100
AcDbLinetypeTableRecord
  2
DOT2
 70
0
  3
Dot (.5) . . . . . . . . . . . . . . . . . . . 
 72
65
 73
2
 40
0.254
 49
0.0
 74
0
 49
-0.254
 74
0
  0
LTYPE
  5
3E
330
2
100
AcDbSymbolTableRecord
100
AcDbLinetypeTableRecord
  2
DIVIDE
 70
0
  3
Divide __ . . __ . . __ . . __ . . __ . . __
 72
65
 73
6
 40
4.064
 49
2.54
 74
0
 49
-0.508
 74
0
 49
0.0
 74
0
 49
-0.508
 74
0
 49
0.0
 74
0
 49
-0.508
 74
0
  0
LTYPE
  5
3F
330
2
100
AcDbSymbolTableRecord
100
AcDbLinetypeTableRecord
  2
DIVIDEX2
 70
0
  3
Divide (2x) ____  . .  ____  . .  ____  . .  ____
 72
65
 73
6
 40
6.604
 49
5.08
 74
0
 49
-0.508
 74
0
 49
0.0
 74
0
 49
-0.508
 74
0
 49
0.0
 74
0
 49
-0.508
 74
0
  0
LTYPE
  5
40
330
2
100
AcDbSymbolTableRecord
100
AcDbLinetypeTableRecord
  2
DIVIDE2
 70
0
  3
Divide(.5x) _ . _ . _ . _ . _ . _ . _ . _
 72
65
 73
6
 40
2.032
 49
1.27
 74
0
 49
-0.254
 74
0
 49
0.0
 74
0
 49
-0.254
 74
0
 49
0.0
 74
0
 49
-0.254
 74
0
  0
ENDTAB
  0
TABLE
  2
LAYER
  5
1
330
0
100
AcDbSymbolTable
 70
11
  0
LAYER
  5
27
330
1
100
AcDbSymbolTableRecord
100
AcDbLayerTableRecord
  2
0
 70
0
 62
7
  6
Continuous
370
-3
390
13
  0
LAYER
  5
28
330
1
100
AcDbSymbolTableRecord
100
AcDbLayerTableRecord
  2
Defpoints
 70
0
 62
7
  6
Continuous
290
0
370
-3
390
13
  0
LAYER
  5
8B
330
1
100
AcDbSymbolTableRecord
100
AcDbLayerTableRecord
  2
01_FILLER
 70
0
 62
8
  6
Continuous
370
-3
390
13
  0
LAYER
  5
8C
330
1
100
AcDbSymbolTableRecord
100
AcDbLayerTableRecord
  2
02_CABINET
 70
0
 62
7
  6
Continuous
370
-3
390
13
  0
LAYER
  5
8D
330
1
100
AcDbSymbolTableRecord
100
AcDbLayerTableRecord
  2
03_DASHED_BOARD
 70
0
 62
8
  6
DASHED
370
-3
390
13
  0
LAYER
  5
8E
330
1
100
AcDbSymbolTableRecord
100
AcDbLayerTableRecord
  2
04_DOOR_LINES
 70
0
 62
3
  6
Continuous
370
-3
390
13
  0
LAYER
  5
8F
330
1
100
AcDbSymbolTableRecord
100
AcDbLayerTableRecord
  2
05_GLASS_ALU
 70
0
 62
4
  6
Continuous
370
-3
390
13
  0
LAYER
  5
90
330
1
100
AcDbSymbolTableRecord
100
AcDbLayerTableRecord
  2
06_LED_STRIP
 70
0
 62
2
  6
DASHED
370
-3
390
13
  0
LAYER
  5
91
330
1
100
AcDbSymbolTableRecord
100
AcDbLayerTableRecord
  2
07_ACCESSORIES
 70
0
 62
1
  6
Continuous
370
-3
390
13
  0
LAYER
  5
92
330
1
100
AcDbSymbolTableRecord
100
AcDbLayerTableRecord
  2
08_DIMENSIONS
 70
0
 62
3
  6
Continuous
370
-3
390
13
  0
LAYER
  5
93
330
1
100
AcDbSymbolTableRecord
100
AcDbLayerTableRecord
  2
09_TEXT
 70
0
 62
7
  6
Continuous
370
-3
390
13
  0
ENDTAB
  0
TABLE
  2
STYLE
  5
5
330
0
100
AcDbSymbolTable
 70
27
  0
STYLE
  5
29
330
5
100
AcDbSymbolTableRecord
100
AcDbTextStyleTableRecord
  2
Standard
 70
0
 40
0.0
 41
1.0
 50
0.0
 71
0
 42
2.5
  3
txt
  4

  0
STYLE
  5
41
330
5
100
AcDbSymbolTableRecord
100
AcDbTextStyleTableRecord
  2
OpenSans-Light
 70
0
 40
0.0
 41
1.0
 50
0.0
 71
0
 42
2.5
  3
OpenSans-Light.ttf
  4

  0
STYLE
  5
42
330
5
100
AcDbSymbolTableRecord
100
AcDbTextStyleTableRecord
  2
OpenSans-Light-Italic
 70
0
 40
0.0
 41
1.0
 50
0.0
 71
0
 42
2.5
  3
OpenSans-LightItalic.ttf
  4

  0
STYLE
  5
43
330
5
100
AcDbSymbolTableRecord
100
AcDbTextStyleTableRecord
  2
OpenSans
 70
0
 40
0.0
 41
1.0
 50
0.0
 71
0
 42
2.5
  3
OpenSans-Regular.ttf
  4

  0
STYLE
  5
44
330
5
100
AcDbSymbolTableRecord
100
AcDbTextStyleTableRecord
  2
OpenSans-Italic
 70
0
 40
0.0
 41
1.0
 50
0.0
 71
0
 42
2.5
  3
OpenSans-Italic.ttf
  4

  0
STYLE
  5
45
330
5
100
AcDbSymbolTableRecord
100
AcDbTextStyleTableRecord
  2
OpenSans-SemiBold
 70
0
 40
0.0
 41
1.0
 50
0.0
 71
0
 42
2.5
  3
OpenSans-SemiBold.ttf
  4

  0
STYLE
  5
46
330
5
100
AcDbSymbolTableRecord
100
AcDbTextStyleTableRecord
  2
OpenSans-SemiBoldItalic
 70
0
 40
0.0
 41
1.0
 50
0.0
 71
0
 42
2.5
  3
OpenSans-SemiBoldItalic.ttf
  4

  0
STYLE
  5
47
330
5
100
AcDbSymbolTableRecord
100
AcDbTextStyleTableRecord
  2
OpenSans-Bold
 70
0
 40
0.0
 41
1.0
 50
0.0
 71
0
 42
2.5
  3
OpenSans-Bold.ttf
  4

  0
STYLE
  5
48
330
5
100
AcDbSymbolTableRecord
100
AcDbTextStyleTableRecord
  2
OpenSans-BoldItalic
 70
0
 40
0.0
 41
1.0
 50
0.0
 71
0
 42
2.5
  3
OpenSans-BoldItalic.ttf
  4

  0
STYLE
  5
49
330
5
100
AcDbSymbolTableRecord
100
AcDbTextStyleTableRecord
  2
OpenSans-ExtraBold
 70
0
 40
0.0
 41
1.0
 50
0.0
 71
0
 42
2.5
  3
OpenSans-ExtraBold.ttf
  4

  0
STYLE
  5
4A
330
5
100
AcDbSymbolTableRecord
100
AcDbTextStyleTableRecord
  2
OpenSans-ExtraBoldItalic
 70
0
 40
0.0
 41
1.0
 50
0.0
 71
0
 42
2.5
  3
OpenSans-ExtraBoldItalic.ttf
  4

  0
STYLE
  5
4B
330
5
100
AcDbSymbolTableRecord
100
AcDbTextStyleTableRecord
  2
OpenSansCondensed-Bold
 70
0
 40
0.0
 41
1.0
 50
0.0
 71
0
 42
2.5
  3
OpenSansCondensed-Bold.ttf
  4

  0
STYLE
  5
4C
330
5
100
AcDbSymbolTableRecord
100
AcDbTextStyleTableRecord
  2
OpenSansCondensed-Light
 70
0
 40
0.0
 41
1.0
 50
0.0
 71
0
 42
2.5
  3
OpenSansCondensed-Light.ttf
  4

  0
STYLE
  5
4D
330
5
100
AcDbSymbolTableRecord
100
AcDbTextStyleTableRecord
  2
OpenSansCondensed-Italic
 70
0
 40
0.0
 41
1.0
 50
0.0
 71
0
 42
2.5
  3
OpenSansCondensed-LightItalic.ttf
  4

  0
STYLE
  5
4E
330
5
100
AcDbSymbolTableRecord
100
AcDbTextStyleTableRecord
  2
LiberationSans
 70
0
 40
0.0
 41
1.0
 50
0.0
 71
0
 42
2.5
  3
LiberationSans-Regular.ttf
  4

  0
STYLE
  5
4F
330
5
100
AcDbSymbolTableRecord
100
AcDbTextStyleTableRecord
  2
LiberationSans-Bold
 70
0
 40
0.0
 41
1.0
 50
0.0
 71
0
 42
2.5
  3
LiberationSans-Bold.ttf
  4

  0
STYLE
  5
50
330
5
100
AcDbSymbolTableRecord
100
AcDbTextStyleTableRecord
  2
LiberationSans-BoldItalic
 70
0
 40
0.0
 41
1.0
 50
0.0
 71
0
 42
2.5
  3
LiberationSans-BoldItalic.ttf
  4

  0
STYLE
  5
51
330
5
100
AcDbSymbolTableRecord
100
AcDbTextStyleTableRecord
  2
LiberationSans-Italic
 70
0
 40
0.0
 41
1.0
 50
0.0
 71
0
 42
2.5
  3
LiberationSans-Italic.ttf
  4

  0
STYLE
  5
52
330
5
100
AcDbSymbolTableRecord
100
AcDbTextStyleTableRecord
  2
LiberationSerif
 70
0
 40
0.0
 41
1.0
 50
0.0
 71
0
 42
2.5
  3
LiberationSerif-Regular.ttf
  4

  0
STYLE
  5
53
330
5
100
AcDbSymbolTableRecord
100
AcDbTextStyleTableRecord
  2
LiberationSerif-Bold
 70
0
 40
0.0
 41
1.0
 50
0.0
 71
0
 42
2.5
  3
LiberationSerif-Bold.ttf
  4

  0
STYLE
  5
54
330
5
100
AcDbSymbolTableRecord
100
AcDbTextStyleTableRecord
  2
LiberationSerif-BoldItalic
 70
0
 40
0.0
 41
1.0
 50
0.0
 71
0
 42
2.5
  3
LiberationSerif-BoldItalic.ttf
  4

  0
STYLE
  5
55
330
5
100
AcDbSymbolTableRecord
100
AcDbTextStyleTableRecord
  2
LiberationSerif-Italic
 70
0
 40
0.0
 41
1.0
 50
0.0
 71
0
 42
2.5
  3
LiberationSerif-Italic.ttf
  4

  0
STYLE
  5
56
330
5
100
AcDbSymbolTableRecord
100
AcDbTextStyleTableRecord
  2
LiberationMono
 70
0
 40
0.0
 41
1.0
 50
0.0
 71
0
 42
2.5
  3
LiberationMono-Regular.ttf
  4

  0
STYLE
  5
57
330
5
100
AcDbSymbolTableRecord
100
AcDbTextStyleTableRecord
  2
LiberationMono-Bold
 70
0
 40
0.0
 41
1.0
 50
0.0
 71
0
 42
2.5
  3
LiberationMono-Bold.ttf
  4

  0
STYLE
  5
58
330
5
100
AcDbSymbolTableRecord
100
AcDbTextStyleTableRecord
  2
LiberationMono-BoldItalic
 70
0
 40
0.0
 41
1.0
 50
0.0
 71
0
 42
2.5
  3
LiberationMono-BoldItalic.ttf
  4

  0
STYLE
  5
59
330
5
100
AcDbSymbolTableRecord
100
AcDbTextStyleTableRecord
  2
LiberationMono-Italic
 70
0
 40
0.0
 41
1.0
 50
0.0
 71
0
 42
2.5
  3
LiberationMono-Italic.ttf
  4

  0
STYLE
  5
8A
330
5
100
AcDbSymbolTableRecord
100
AcDbTextStyleTableRecord
  2
CHINESE
 70
0
 40
0.0
 41
1.0
 50
0.0
 71
0
 42
2.5
  3
simhei.ttf
  4

  0
ENDTAB
  0
TABLE
  2
VIEW
  5
7
330
0
100
AcDbSymbolTable
 70
0
  0
ENDTAB
  0
TABLE
  2
UCS
  5
6
330
0
100
AcDbSymbolTable
 70
0
  0
ENDTAB
  0
TABLE
  2
APPID
  5
3
330
0
100
AcDbSymbolTable
 70
3
  0
APPID
  5
2A
330
3
100
AcDbSymbolTableRecord
100
AcDbRegAppTableRecord
  2
ACAD
 70
0
  0
APPID
  5
216
330
3
100
AcDbSymbolTableRecord
100
AcDbRegAppTableRecord
  2
HATCHBACKGROUNDCOLOR
 70
0
  0
APPID
  5
217
330
3
100
AcDbSymbolTableRecord
100
AcDbRegAppTableRecord
  2
EZDXF
 70
0
  0
ENDTAB
  0
TABLE
  2
DIMSTYLE
  5
4
330
0
100
AcDbSymbolTable
 70
12
100
AcDbDimStyleTable
  0
DIMSTYLE
105
2B
330
4
100
AcDbSymbolTableRecord
100
AcDbDimStyleTableRecord
  2
Standard
 70
0
  3

  4

 40
1.0
 41
20.0
 42
0.625
 43
3.75
 44
1.25
 45
0.0
 46
0.0
 47
0.0
 48
0.0
140
30.0
141
2.5
142
0.0
143
0.03937007874
144
1.0
145
0.0
146
1.0
147
0.625
148
0.0
 71
0
 72
0
 73
0
 74
0
 75
0
 76
0
 77
1
 78
8
 79
3
170
0
171
3
172
1
173
0
174
0
175
0
176
3
177
3
178
3
179
2
271
2
272
2
273
2
274
3
275
0
276
0
277
2
278
44
279
0
280
0
281
0
282
0
283
0
284
8
285
0
286
0
288
0
289
3
340
8A
371
-2
372
-2
  0
DIMSTYLE
105
73
330
4
100
AcDbSymbolTableRecord
100
AcDbDimStyleTableRecord
  2
EZDXF
 70
0
  3

  4

 40
1.0
 41
0.175
 42
0.125
 43
3.75
 44
0.375
 45
0.0
 46
0.0
 47
0.0
 48
0.0
140
0.25
141
2.5
142
0.0
143
0.03937007874
144
100.0
145
0.0
146
0.5
147
0.1
148
0.0
 71
0
 72
0
 73
0
 74
0
 75
0
 76
0
 77
1
 78
12
 79
3
170
0
171
3
172
1
173
0
174
0
175
0
176
0
177
0
178
0
179
2
271
2
272
2
273
2
274
3
275
0
276
0
277
2
278
46
279
2
280
0
281
0
282
0
283
0
284
8
285
0
286
0
288
1
289
3
340
4C
342
74
371
-2
372
-2
  0
DIMSTYLE
105
7C
330
4
100
AcDbSymbolTableRecord
100
AcDbDimStyleTableRecord
  2
EZ_M_100_H25_CM
 70
0
  3

  4

 40
1.0
 41
0.25
 42
0.125
 43
3.75
 44
0.375
 45
0.0
 46
0.0
 47
0.0
 48
0.0
140
0.25
141
2.5
142
0.125
143
0.03937007874
144
100.0
145
0.0
146
0.5
147
0.1
148
0.0
 71
0
 72
0
 73
0
 74
0
 75
0
 76
0
 77
1
 78
12
 79
3
170
0
171
3
172
1
173
0
174
0
175
0
176
0
177
0
178
0
179
2
271
2
272
2
273
2
274
3
275
0
276
0
277
2
278
46
279
2
280
0
281
0
282
0
283
0
284
8
285
0
286
0
288
1
289
3
340
4C
371
-2
372
-2
  0
DIMSTYLE
105
7D
330
4
100
AcDbSymbolTableRecord
100
AcDbDimStyleTableRecord
  2
EZ_M_50_H25_CM
 70
0
  3

  4

 40
1.0
 41
0.125
 42
0.0625
 43
3.75
 44
0.1875
 45
0.0
 46
0.0
 47
0.0
 48
0.0
140
0.125
141
2.5
142
0.0625
143
0.03937007874
144
100.0
145
0.0
146
0.5
147
0.05
148
0.0
 71
0
 72
0
 73
0
 74
0
 75
0
 76
0
 77
1
 78
12
 79
3
170
0
171
3
172
1
173
0
174
0
175
0
176
0
177
0
178
0
179
2
271
2
272
2
273
2
274
3
275
0
276
0
277
2
278
46
279
2
280
0
281
0
282
0
283
0
284
8
285
0
286
0
288
1
289
3
340
4C
371
-2
372
-2
  0
DIMSTYLE
105
7E
330
4
100
AcDbSymbolTableRecord
100
AcDbDimStyleTableRecord
  2
EZ_M_25_H25_CM
 70
0
  3

  4

 40
1.0
 41
0.0625
 42
0.03125
 43
3.75
 44
0.09375
 45
0.0
 46
0.0
 47
0.0
 48
0.0
140
0.0625
141
2.5
142
0.03125
143
0.03937007874
144
100.0
145
0.0
146
0.5
147
0.025
148
0.0
 71
0
 72
0
 73
0
 74
0
 75
0
 76
0
 77
1
 78
12
 79
3
170
0
171
3
172
1
173
0
174
0
175
0
176
0
177
0
178
0
179
2
271
2
272
2
273
2
274
3
275
0
276
0
277
2
278
46
279
2
280
0
281
0
282
0
283
0
284
8
285
0
286
0
288
1
289
3
340
4C
371
-2
372
-2
  0
DIMSTYLE
105
7F
330
4
100
AcDbSymbolTableRecord
100
AcDbDimStyleTableRecord
  2
EZ_M_20_H25_CM
 70
0
  3

  4

 40
1.0
 41
0.05
 42
0.025
 43
3.75
 44
0.07500000000000001
 45
0.0
 46
0.0
 47
0.0
 48
0.0
140
0.05
141
2.5
142
0.025
143
0.03937007874
144
100.0
145
0.0
146
0.5
147
0.020000000000000004
148
0.0
 71
0
 72
0
 73
0
 74
0
 75
0
 76
0
 77
1
 78
12
 79
3
170
0
171
3
172
1
173
0
174
0
175
0
176
0
177
0
178
0
179
2
271
2
272
2
273
2
274
3
275
0
276
0
277
2
278
46
279
2
280
0
281
0
282
0
283
0
284
8
285
0
286
0
288
1
289
3
340
4C
371
-2
372
-2
  0
DIMSTYLE
105
80
330
4
100
AcDbSymbolTableRecord
100
AcDbDimStyleTableRecord
  2
EZ_M_10_H25_CM
 70
0
  3

  4

 40
1.0
 41
0.025
 42
0.0125
 43
3.75
 44
0.037500000000000006
 45
0.0
 46
0.0
 47
0.0
 48
0.0
140
0.025
141
2.5
142
0.0125
143
0.03937007874
144
100.0
145
0.0
146
0.5
147
0.010000000000000002
148
0.0
 71
0
 72
0
 73
0
 74
0
 75
0
 76
0
 77
1
 78
12
 79
3
170
0
171
3
172
1
173
0
174
0
175
0
176
0
177
0
178
0
179
2
271
2
272
2
273
2
274
3
275
0
276
0
277
2
278
46
279
2
280
0
281
0
282
0
283
0
284
8
285
0
286
0
288
1
289
3
340
4C
371
-2
372
-2
  0
DIMSTYLE
105
81
330
4
100
AcDbSymbolTableRecord
100
AcDbDimStyleTableRecord
  2
EZ_M_5_H25_CM
 70
0
  3

  4

 40
1.0
 41
0.0125
 42
0.00625
 43
3.75
 44
0.018750000000000003
 45
0.0
 46
0.0
 47
0.0
 48
0.0
140
0.0125
141
2.5
142
0.00625
143
0.03937007874
144
100.0
145
0.0
146
0.5
147
0.005000000000000001
148
0.0
 71
0
 72
0
 73
0
 74
0
 75
0
 76
0
 77
1
 78
12
 79
3
170
0
171
3
172
1
173
0
174
0
175
0
176
0
177
0
178
0
179
2
271
2
272
2
273
2
274
3
275
0
276
0
277
2
278
46
279
2
280
0
281
0
282
0
283
0
284
8
285
0
286
0
288
1
289
3
340
4C
371
-2
372
-2
  0
DIMSTYLE
105
82
330
4
100
AcDbSymbolTableRecord
100
AcDbDimStyleTableRecord
  2
EZ_M_1_H25_CM
 70
0
  3

  4

 40
1.0
 41
0.0025
 42
0.00125
 43
3.75
 44
0.00375
 45
0.0
 46
0.0
 47
0.0
 48
0.0
140
0.0025
141
2.5
142
0.00125
143
0.03937007874
144
100.0
145
0.0
146
0.5
147
0.001
148
0.0
 71
0
 72
0
 73
0
 74
0
 75
0
 76
0
 77
1
 78
12
 79
3
170
0
171
3
172
1
173
0
174
0
175
0
176
0
177
0
178
0
179
2
271
2
272
2
273
2
274
3
275
0
276
0
277
2
278
46
279
2
280
0
281
0
282
0
283
0
284
8
285
0
286
0
288
1
289
3
340
4C
371
-2
372
-2
  0
DIMSTYLE
105
83
330
4
100
AcDbSymbolTableRecord
100
AcDbDimStyleTableRecord
  2
EZ_RADIUS
 70
0
  3

  4

 40
1.0
 41
0.25
 42
0.125
 43
3.75
 44
0.375
 45
0.0
 46
0.0
 47
0.0
 48
0.0
140
0.25
141
0.0
142
0.0
143
0.03937007874
144
100.0
145
0.0
146
0.5
147
0.1
148
0.0
 71
0
 72
0
 73
0
 74
0
 75
0
 76
0
 77
1
 78
12
 79
3
170
0
171
3
172
0
173
0
174
0
175
0
176
0
177
0
178
0
179
2
271
2
272
2
273
2
274
3
275
0
276
0
277
2
278
46
279
1
280
0
281
0
282
0
283
0
284
8
285
0
286
0
288
1
289
3
340
4C
342
84
371
-2
372
-2
  0
DIMSTYLE
105
88
330
4
100
AcDbSymbolTableRecord
100
AcDbDimStyleTableRecord
  2
EZ_RADIUS_INSIDE
 70
0
  3

  4

 40
1.0
 41
0.25
 42
0.125
 43
3.75
 44
0.375
 45
0.0
 46
0.0
 47
0.0
 48
0.0
140
0.25
141
0.0
142
0.0
143
0.03937007874
144
100.0
145
0.0
146
0.5
147
0.1
148
0.0
 71
0
 72
0
 73
0
 74
0
 75
0
 76
0
 77
0
 78
12
 79
3
170
0
171
3
172
0
173
0
174
1
175
0
176
0
177
0
178
0
179
2
271
2
272
2
273
2
274
3
275
0
276
0
277
2
278
46
279
0
280
0
281
0
282
0
283
0
284
8
285
0
286
0
288
1
289
0
340
4C
342
84
371
-2
372
-2
  0
DIMSTYLE
105
89
330
4
100
AcDbSymbolTableRecord
100
AcDbDimStyleTableRecord
  2
EZ_CURVED
 70
0
  3

  4

 40
1.0
 41
0.25
 42
0.125
 43
3.75
 44
0.375
 45
0.0
 46
0.0
 47
0.0
 48
0.0
140
0.25
141
2.5
142
0.0
143
0.03937007874
144
100.0
145
0.0
146
0.5
147
0.1
148
0.0
 71
0
 72
0
 73
0
 74
0
 75
0
 76
0
 77
1
 78
12
 79
2
 90
2
170
0
171
3
172
1
173
0
174
0
175
0
176
0
177
0
178
0
179
2
271
2
272
2
273
2
274
3
275
0
276
0
277
2
278
46
279
2
280
0
281
0
282
0
283
0
284
8
285
0
286
0
288
1
289
3
340
4C
371
-2
372
-2
  0
ENDTAB
  0
TABLE
  2
BLOCK_RECORD
  5
9
330
0
100
AcDbSymbolTable
 70
22
  0
BLOCK_RECORD
  5
17
330
9
100
AcDbSymbolTableRecord
100
AcDbBlockTableRecord
  2
*Model_Space
340
1A
  0
BLOCK_RECORD
  5
1B
330
9
100
AcDbSymbolTableRecord
100
AcDbBlockTableRecord
  2
*Paper_Space
340
1E
  0
BLOCK_RECORD
  5
74
330
9
100
AcDbSymbolTableRecord
100
AcDbBlockTableRecord
  2
_ARCHTICK
340
0
  0
BLOCK_RECORD
  5
78
330
9
100
AcDbSymbolTableRecord
100
AcDbBlockTableRecord
  2
_CLOSEDFILLED
340
0
  0
BLOCK_RECORD
  5
84
330
9
100
AcDbSymbolTableRecord
100
AcDbBlockTableRecord
  2
_CLOSEDBLANK
340
0
  0
BLOCK_RECORD
  5
104
330
9
100
AcDbSymbolTableRecord
100
AcDbBlockTableRecord
  2
*D1
340
0
  0
BLOCK_RECORD
  5
115
330
9
100
AcDbSymbolTableRecord
100
AcDbBlockTableRecord
  2
*D2
340
0
  0
BLOCK_RECORD
  5
125
330
9
100
AcDbSymbolTableRecord
100
AcDbBlockTableRecord
  2
*D3
340
0
  0
BLOCK_RECORD
  5
136
330
9
100
AcDbSymbolTableRecord
100
AcDbBlockTableRecord
  2
*D4
340
0
  0
BLOCK_RECORD
  5
146
330
9
100
AcDbSymbolTableRecord
100
AcDbBlockTableRecord
  2
*D5
340
0
  0
BLOCK_RECORD
  5
157
330
9
100
AcDbSymbolTableRecord
100
AcDbBlockTableRecord
  2
*D6
340
0
  0
BLOCK_RECORD
  5
167
330
9
100
AcDbSymbolTableRecord
100
AcDbBlockTableRecord
  2
*D7
340
0
  0
BLOCK_RECORD
  5
178
330
9
100
AcDbSymbolTableRecord
100
AcDbBlockTableRecord
  2
*D8
340
0
  0
BLOCK_RECORD
  5
188
330
9
100
AcDbSymbolTableRecord
100
AcDbBlockTableRecord
  2
*D9
340
0
  0
BLOCK_RECORD
  5
197
330
9
100
AcDbSymbolTableRecord
100
AcDbBlockTableRecord
  2
*D10
340
0
  0
BLOCK_RECORD
  5
1A7
330
9
100
AcDbSymbolTableRecord
100
AcDbBlockTableRecord
  2
*D11
340
0
  0
BLOCK_RECORD
  5
1B6
330
9
100
AcDbSymbolTableRecord
100
AcDbBlockTableRecord
  2
*D12
340
0
  0
BLOCK_RECORD
  5
1C6
330
9
100
AcDbSymbolTableRecord
100
AcDbBlockTableRecord
  2
*D13
340
0
  0
BLOCK_RECORD
  5
1D7
330
9
100
AcDbSymbolTableRecord
100
AcDbBlockTableRecord
  2
*D14
340
0
  0
BLOCK_RECORD
  5
1E7
330
9
100
AcDbSymbolTableRecord
100
AcDbBlockTableRecord
  2
*D15
340
0
  0
BLOCK_RECORD
  5
1F7
330
9
100
AcDbSymbolTableRecord
100
AcDbBlockTableRecord
  2
*D16
340
0
  0
BLOCK_RECORD
  5
206
330
9
100
AcDbSymbolTableRecord
100
AcDbBlockTableRecord
  2
*D17
340
0
  0
ENDTAB
  0
ENDSEC
  0
SECTION
  2
BLOCKS
  0
BLOCK
  5
18
330
17
100
AcDbEntity
  8
0
100
AcDbBlockBegin
  2
*Model_Space
 70
0
 10
0.0
 20
0.0
 30
0.0
  3
*Model_Space
  1

  0
ENDBLK
  5
19
330
17
100
AcDbEntity
  8
0
100
AcDbBlockEnd
  0
BLOCK
  5
1C
330
1B
100
AcDbEntity
  8
0
100
AcDbBlockBegin
  2
*Paper_Space
 70
0
 10
0.0
 20
0.0
 30
0.0
  3
*Paper_Space
  1

  0
ENDBLK
  5
1D
330
1B
100
AcDbEntity
  8
0
100
AcDbBlockEnd
  0
BLOCK
  5
75
330
74
100
AcDbEntity
  8
0
100
AcDbBlockBegin
  2
_ARCHTICK
 70
0
 10
0.0
 20
0.0
 30
0.0
  3
_ARCHTICK
  1

  0
LWPOLYLINE
  5
77
330
74
100
AcDbEntity
  8
0
  6
BYBLOCK
 62
0
100
AcDbPolyline
 90
2
 70
0
 43
0.15
 10
-0.5
 20
-0.5
 10
0.5
 20
0.5
  0
ENDBLK
  5
76
330
74
100
AcDbEntity
  8
0
100
AcDbBlockEnd
  0
BLOCK
  5
79
330
78
100
AcDbEntity
  8
0
100
AcDbBlockBegin
  2
_CLOSEDFILLED
 70
0
 10
0.0
 20
0.0
 30
0.0
  3
_CLOSEDFILLED
  1

  0
SOLID
  5
7B
330
78
100
AcDbEntity
  8
0
  6
BYBLOCK
 62
0
100
AcDbTrace
 10
-1.0
 20
0.16439898372402537
 30
0.0
 11
0.0
 21
0.0
 31
0.0
 12
-1.0
 22
-0.16439898372402537
 32
0.0
 13
-1.0
 23
-0.16439898372402537
 33
0.0
  0
ENDBLK
  5
7A
330
78
100
AcDbEntity
  8
0
100
AcDbBlockEnd
  0
BLOCK
  5
85
330
84
100
AcDbEntity
  8
0
100
AcDbBlockBegin
  2
_CLOSEDBLANK
 70
0
 10
0.0
 20
0.0
 30
0.0
  3
_CLOSEDBLANK
  1

  0
LWPOLYLINE
  5
87
330
84
100
AcDbEntity
  8
0
  6
BYBLOCK
 62
0
100
AcDbPolyline
 90
3
 70
1
 10
-1.0
 20
0.16439898372402537
 10
0.0
 20
0.0
 10
-1.0
 20
-0.16439898372402537
  0
ENDBLK
  5
86
330
84
100
AcDbEntity
  8
0
100
AcDbBlockEnd
  0
BLOCK
  5
105
330
104
100
AcDbEntity
  8
0
100
AcDbBlockBegin
  2
*D1
 70
1
 10
0.0
 20
0.0
 30
0.0
  3
*D1
  1

  0
LINE
  5
107
330
104
100
AcDbEntity
  8
0
 62
3
100
AcDbLine
 10
0.0
 20
2550.0
 30
0.0
 11
0.0
 21
2750.0
 31
0.0
  0
LINE
  5
108
330
104
100
AcDbEntity
  8
0
 62
3
100
AcDbLine
 10
18.0
 20
2550.0
 30
0.0
 11
18.0
 21
2750.0
 31
0.0
  0
INSERT
  5
109
330
104
100
AcDbEntity
  8
08_DIMENSIONS
 62
3
100
AcDbBlockReference
  2
_CLOSEDFILLED
 10
0.0
 20
2750.0
 30
0.0
 41
20.0
 42
20.0
  0
INSERT
  5
10B
330
104
100
AcDbEntity
  8
08_DIMENSIONS
 62
3
100
AcDbBlockReference
  2
_CLOSEDFILLED
 10
18.0
 20
2750.0
 30
0.0
 41
20.0
 42
20.0
 50
180.0
  0
LINE
  5
10D
330
104
100
AcDbEntity
  8
0
 62
3
100
AcDbLine
 10
-20.0
 20
2750.0
 30
0.0
 11
-40.0
 21
2750.0
 31
0.0
  0
LINE
  5
10E
330
104
100
AcDbEntity
  8
0
 62
3
100
AcDbLine
 10
38.0
 20
2750.0
 30
0.0
 11
58.0
 21
2750.0
 31
0.0
  0
LINE
  5
10F
330
104
100
AcDbEntity
  8
0
 62
3
100
AcDbLine
 10
0.0
 20
2750.0
 30
0.0
 11
18.0
 21
2750.0
 31
0.0
  0
MTEXT
  5
110
330
104
100
AcDbEntity
  8
08_DIMENSIONS
 62
3
100
AcDbMText
 10
9.0
 20
2765.625
 30
0.0
 40
30.0
 71
5
  1
18
  7
CHINESE
  0
POINT
  5
111
330
104
100
AcDbEntity
  8
Defpoints
100
AcDbPoint
 10
0.0
 20
2750.0
 30
0.0
  0
POINT
  5
112
330
104
100
AcDbEntity
  8
Defpoints
100
AcDbPoint
 10
0.0
 20
2550.0
 30
0.0
  0
POINT
  5
113
330
104
100
AcDbEntity
  8
Defpoints
100
AcDbPoint
 10
18.0
 20
2550.0
 30
0.0
  0
ENDBLK
  5
106
330
104
100
AcDbEntity
  8
0
100
AcDbBlockEnd
  0
BLOCK
  5
116
330
115
100
AcDbEntity
  8
0
100
AcDbBlockBegin
  2
*D2
 70
1
 10
0.0
 20
0.0
 30
0.0
  3
*D2
  1

  0
LINE
  5
118
330
115
100
AcDbEntity
  8
0
 62
3
100
AcDbLine
 10
18.0
 20
2550.0
 30
0.0
 11
18.0
 21
2750.0
 31
0.0
  0
LINE
  5
119
330
115
100
AcDbEntity
  8
0
 62
3
100
AcDbLine
 10
600.0
 20
2550.0
 30
0.0
 11
600.0
 21
2750.0
 31
0.0
  0
INSERT
  5
11A
330
115
100
AcDbEntity
  8
08_DIMENSIONS
 62
3
100
AcDbBlockReference
  2
_CLOSEDFILLED
 10
18.0
 20
2750.0
 30
0.0
 41
20.0
 42
20.0
 50
180.0
  0
INSERT
  5
11C
330
115
100
AcDbEntity
  8
08_DIMENSIONS
 62
3
100
AcDbBlockReference
  2
_CLOSEDFILLED
 10
600.0
 20
2750.0
 30
0.0
 41
20.0
 42
20.0
  0
LINE
  5
11E
330
115
100
AcDbEntity
  8
0
 62
3
100
AcDbLine
 10
38.0
 20
2750.0
 30
0.0
 11
264.0
 21
2750.0
 31
0.0
  0
LINE
  5
11F
330
115
100
AcDbEntity
  8
0
 62
3
100
AcDbLine
 10
354.0
 20
2750.0
 30
0.0
 11
580.0
 21
2750.0
 31
0.0
  0
MTEXT
  5
120
330
115
100
AcDbEntity
  8
08_DIMENSIONS
 62
3
100
AcDbMText
 10
309.0
 20
2750.0
 30
0.0
 40
30.0
 71
5
  1
582
  7
CHINESE
  0
POINT
  5
121
330
115
100
AcDbEntity
  8
Defpoints
100
AcDbPoint
 10
18.0
 20
2750.0
 30
0.0
  0
POINT
  5
122
330
115
100
AcDbEntity
  8
Defpoints
100
AcDbPoint
 10
18.0
 20
2550.0
 30
0.0
  0
POINT
  5
123
330
115
100
AcDbEntity
  8
Defpoints
100
AcDbPoint
 10
600.0
 20
2550.0
 30
0.0
  0
ENDBLK
  5
117
330
115
100
AcDbEntity
  8
0
100
AcDbBlockEnd
  0
BLOCK
  5
126
330
125
100
AcDbEntity
  8
0
100
AcDbBlockBegin
  2
*D3
 70
1
 10
0.0
 20
0.0
 30
0.0
  3
*D3
  1

  0
LINE
  5
128
330
125
100
AcDbEntity
  8
0
 62
3
100
AcDbLine
 10
600.0
 20
2550.0
 30
0.0
 11
600.0
 21
2750.0
 31
0.0
  0
LINE
  5
129
330
125
100
AcDbEntity
  8
0
 62
3
100
AcDbLine
 10
618.0
 20
2550.0
 30
0.0
 11
618.0
 21
2750.0
 31
0.0
  0
INSERT
  5
12A
330
125
100
AcDbEntity
  8
08_DIMENSIONS
 62
3
100
AcDbBlockReference
  2
_CLOSEDFILLED
 10
600.0
 20
2750.0
 30
0.0
 41
20.0
 42
20.0
  0
INSERT
  5
12C
330
125
100
AcDbEntity
  8
08_DIMENSIONS
 62
3
100
AcDbBlockReference
  2
_CLOSEDFILLED
 10
618.0
 20
2750.0
 30
0.0
 41
20.0
 42
20.0
 50
180.0
  0
LINE
  5
12E
330
125
100
AcDbEntity
  8
0
 62
3
100
AcDbLine
 10
580.0
 20
2750.0
 30
0.0
 11
560.0
 21
2750.0
 31
0.0
  0
LINE
  5
12F
330
125
100
AcDbEntity
  8
0
 62
3
100
AcDbLine
 10
638.0
 20
2750.0
 30
0.0
 11
658.0
 21
2750.0
 31
0.0
  0
LINE
  5
130
330
125
100
AcDbEntity
  8
0
 62
3
100
AcDbLine
 10
600.0
 20
2750.0
 30
0.0
 11
618.0
 21
2750.0
 31
0.0
  0
MTEXT
  5
131
330
125
100
AcDbEntity
  8
08_DIMENSIONS
 62
3
100
AcDbMText
 10
609.0
 20
2765.625
 30
0.0
 40
30.0
 71
5
  1
18
  7
CHINESE
  0
POINT
  5
132
330
125
100
AcDbEntity
  8
Defpoints
100
AcDbPoint
 10
600.0
 20
2750.0
 30
0.0
  0
POINT
  5
133
330
125
100
AcDbEntity
  8
Defpoints
100
AcDbPoint
 10
600.0
 20
2550.0
 30
0.0
  0
POINT
  5
134
330
125
100
AcDbEntity
  8
Defpoints
100
AcDbPoint
 10
618.0
 20
2550.0
 30
0.0
  0
ENDBLK
  5
127
330
125
100
AcDbEntity
  8
0
100
AcDbBlockEnd
  0
BLOCK
  5
137
330
136
100
AcDbEntity
  8
0
100
AcDbBlockBegin
  2
*D4
 70
1
 10
0.0
 20
0.0
 30
0.0
  3
*D4
  1

  0
LINE
  5
139
330
136
100
AcDbEntity
  8
0
 62
3
100
AcDbLine
 10
618.0
 20
2550.0
 30
0.0
 11
618.0
 21
2750.0
 31
0.0
  0
LINE
  5
13A
330
136
100
AcDbEntity
  8
0
 62
3
100
AcDbLine
 10
1404.0
 20
2550.0
 30
0.0
 11
1404.0
 21
2750.0
 31
0.0
  0
INSERT
  5
13B
330
136
100
AcDbEntity
  8
08_DIMENSIONS
 62
3
100
AcDbBlockReference
  2
_CLOSEDFILLED
 10
618.0
 20
2750.0
 30
0.0
 41
20.0
 42
20.0
 50
180.0
  0
INSERT
  5
13D
330
136
100
AcDbEntity
  8
08_DIMENSIONS
 62
3
100
AcDbBlockReference
  2
_CLOSEDFILLED
 10
1404.0
 20
2750.0
 30
0.0
 41
20.0
 42
20.0
  0
LINE
  5
13F
330
136
100
AcDbEntity
  8
0
 62
3
100
AcDbLine
 10
638.0
 20
2750.0
 30
0.0
 11
966.0
 21
2750.0
 31
0.0
  0
LINE
  5
140
330
136
100
AcDbEntity
  8
0
 62
3
100
AcDbLine
 10
1056.0
 20
2750.0
 30
0.0
 11
1384.0
 21
2750.0
 31
0.0
  0
MTEXT
  5
141
330
136
100
AcDbEntity
  8
08_DIMENSIONS
 62
3
100
AcDbMText
 10
1011.0
 20
2750.0
 30
0.0
 40
30.0
 71
5
  1
786
  7
CHINESE
  0
POINT
  5
142
330
136
100
AcDbEntity
  8
Defpoints
100
AcDbPoint
 10
618.0
 20
2750.0
 30
0.0
  0
POINT
  5
143
330
136
100
AcDbEntity
  8
Defpoints
100
AcDbPoint
 10
618.0
 20
2550.0
 30
0.0
  0
POINT
  5
144
330
136
100
AcDbEntity
  8
Defpoints
100
AcDbPoint
 10
1404.0
 20
2550.0
 30
0.0
  0
ENDBLK
  5
138
330
136
100
AcDbEntity
  8
0
100
AcDbBlockEnd
  0
BLOCK
  5
147
330
146
100
AcDbEntity
  8
0
100
AcDbBlockBegin
  2
*D5
 70
1
 10
0.0
 20
0.0
 30
0.0
  3
*D5
  1

  0
LINE
  5
149
330
146
100
AcDbEntity
  8
0
 62
3
100
AcDbLine
 10
1404.0
 20
2550.0
 30
0.0
 11
1404.0
 21
2750.0
 31
0.0
  0
LINE
  5
14A
330
146
100
AcDbEntity
  8
0
 62
3
100
AcDbLine
 10
1422.0
 20
2550.0
 30
0.0
 11
1422.0
 21
2750.0
 31
0.0
  0
INSERT
  5
14B
330
146
100
AcDbEntity
  8
08_DIMENSIONS
 62
3
100
AcDbBlockReference
  2
_CLOSEDFILLED
 10
1404.0
 20
2750.0
 30
0.0
 41
20.0
 42
20.0
  0
INSERT
  5
14D
330
146
100
AcDbEntity
  8
08_DIMENSIONS
 62
3
100
AcDbBlockReference
  2
_CLOSEDFILLED
 10
1422.0
 20
2750.0
 30
0.0
 41
20.0
 42
20.0
 50
180.0
  0
LINE
  5
14F
330
146
100
AcDbEntity
  8
0
 62
3
100
AcDbLine
 10
1384.0
 20
2750.0
 30
0.0
 11
1364.0
 21
2750.0
 31
0.0
  0
LINE
  5
150
330
146
100
AcDbEntity
  8
0
 62
3
100
AcDbLine
 10
1442.0
 20
2750.0
 30
0.0
 11
1462.0
 21
2750.0
 31
0.0
  0
LINE
  5
151
330
146
100
AcDbEntity
  8
0
 62
3
100
AcDbLine
 10
1404.0
 20
2750.0
 30
0.0
 11
1422.0
 21
2750.0
 31
0.0
  0
MTEXT
  5
152
330
146
100
AcDbEntity
  8
08_DIMENSIONS
 62
3
100
AcDbMText
 10
1413.0
 20
2765.625
 30
0.0
 40
30.0
 71
5
  1
18
  7
CHINESE
  0
POINT
  5
153
330
146
100
AcDbEntity
  8
Defpoints
100
AcDbPoint
 10
1404.0
 20
2750.0
 30
0.0
  0
POINT
  5
154
330
146
100
AcDbEntity
  8
Defpoints
100
AcDbPoint
 10
1404.0
 20
2550.0
 30
0.0
  0
POINT
  5
155
330
146
100
AcDbEntity
  8
Defpoints
100
AcDbPoint
 10
1422.0
 20
2550.0
 30
0.0
  0
ENDBLK
  5
148
330
146
100
AcDbEntity
  8
0
100
AcDbBlockEnd
  0
BLOCK
  5
158
330
157
100
AcDbEntity
  8
0
100
AcDbBlockBegin
  2
*D6
 70
1
 10
0.0
 20
0.0
 30
0.0
  3
*D6
  1

  0
LINE
  5
15A
330
157
100
AcDbEntity
  8
0
 62
3
100
AcDbLine
 10
1422.0
 20
2550.0
 30
0.0
 11
1422.0
 21
2750.0
 31
0.0
  0
LINE
  5
15B
330
157
100
AcDbEntity
  8
0
 62
3
100
AcDbLine
 10
2208.0
 20
2550.0
 30
0.0
 11
2208.0
 21
2750.0
 31
0.0
  0
INSERT
  5
15C
330
157
100
AcDbEntity
  8
08_DIMENSIONS
 62
3
100
AcDbBlockReference
  2
_CLOSEDFILLED
 10
1422.0
 20
2750.0
 30
0.0
 41
20.0
 42
20.0
 50
180.0
  0
INSERT
  5
15E
330
157
100
AcDbEntity
  8
08_DIMENSIONS
 62
3
100
AcDbBlockReference
  2
_CLOSEDFILLED
 10
2208.0
 20
2750.0
 30
0.0
 41
20.0
 42
20.0
  0
LINE
  5
160
330
157
100
AcDbEntity
  8
0
 62
3
100
AcDbLine
 10
1442.0
 20
2750.0
 30
0.0
 11
1770.0
 21
2750.0
 31
0.0
  0
LINE
  5
161
330
157
100
AcDbEntity
  8
0
 62
3
100
AcDbLine
 10
1860.0
 20
2750.0
 30
0.0
 11
2188.0
 21
2750.0
 31
0.0
  0
MTEXT
  5
162
330
157
100
AcDbEntity
  8
08_DIMENSIONS
 62
3
100
AcDbMText
 10
1815.0
 20
2750.0
 30
0.0
 40
30.0
 71
5
  1
786
  7
CHINESE
  0
POINT
  5
163
330
157
100
AcDbEntity
  8
Defpoints
100
AcDbPoint
 10
1422.0
 20
2750.0
 30
0.0
  0
POINT
  5
164
330
157
100
AcDbEntity
  8
Defpoints
100
AcDbPoint
 10
1422.0
 20
2550.0
 30
0.0
  0
POINT
  5
165
330
157
100
AcDbEntity
  8
Defpoints
100
AcDbPoint
 10
2208.0
 20
2550.0
 30
0.0
  0
ENDBLK
  5
159
330
157
100
AcDbEntity
  8
0
100
AcDbBlockEnd
  0
BLOCK
  5
168
330
167
100
AcDbEntity
  8
0
100
AcDbBlockBegin
  2
*D7
 70
1
 10
0.0
 20
0.0
 30
0.0
  3
*D7
  1

  0
LINE
  5
16A
330
167
100
AcDbEntity
  8
0
 62
3
100
AcDbLine
 10
2208.0
 20
2550.0
 30
0.0
 11
2208.0
 21
2750.0
 31
0.0
  0
LINE
  5
16B
330
167
100
AcDbEntity
  8
0
 62
3
100
AcDbLine
 10
2226.0
 20
2550.0
 30
0.0
 11
2226.0
 21
2750.0
 31
0.0
  0
INSERT
  5
16C
330
167
100
AcDbEntity
  8
08_DIMENSIONS
 62
3
100
AcDbBlockReference
  2
_CLOSEDFILLED
 10
2208.0
 20
2750.0
 30
0.0
 41
20.0
 42
20.0
  0
INSERT
  5
16E
330
167
100
AcDbEntity
  8
08_DIMENSIONS
 62
3
100
AcDbBlockReference
  2
_CLOSEDFILLED
 10
2226.0
 20
2750.0
 30
0.0
 41
20.0
 42
20.0
 50
180.0
  0
LINE
  5
170
330
167
100
AcDbEntity
  8
0
 62
3
100
AcDbLine
 10
2188.0
 20
2750.0
 30
0.0
 11
2168.0
 21
2750.0
 31
0.0
  0
LINE
  5
171
330
167
100
AcDbEntity
  8
0
 62
3
100
AcDbLine
 10
2246.0
 20
2750.0
 30
0.0
 11
2266.0
 21
2750.0
 31
0.0
  0
LINE
  5
172
330
167
100
AcDbEntity
  8
0
 62
3
100
AcDbLine
 10
2208.0
 20
2750.0
 30
0.0
 11
2226.0
 21
2750.0
 31
0.0
  0
MTEXT
  5
173
330
167
100
AcDbEntity
  8
08_DIMENSIONS
 62
3
100
AcDbMText
 10
2217.0
 20
2765.625
 30
0.0
 40
30.0
 71
5
  1
18
  7
CHINESE
  0
POINT
  5
174
330
167
100
AcDbEntity
  8
Defpoints
100
AcDbPoint
 10
2208.0
 20
2750.0
 30
0.0
  0
POINT
  5
175
330
167
100
AcDbEntity
  8
Defpoints
100
AcDbPoint
 10
2208.0
 20
2550.0
 30
0.0
  0
POINT
  5
176
330
167
100
AcDbEntity
  8
Defpoints
100
AcDbPoint
 10
2226.0
 20
2550.0
 30
0.0
  0
ENDBLK
  5
169
330
167
100
AcDbEntity
  8
0
100
AcDbBlockEnd
  0
BLOCK
  5
179
330
178
100
AcDbEntity
  8
0
100
AcDbBlockBegin
  2
*D8
 70
1
 10
0.0
 20
0.0
 30
0.0
  3
*D8
  1

  0
LINE
  5
17B
330
178
100
AcDbEntity
  8
0
 62
3
100
AcDbLine
 10
2226.0
 20
2550.0
 30
0.0
 11
2226.0
 21
2750.0
 31
0.0
  0
LINE
  5
17C
330
178
100
AcDbEntity
  8
0
 62
3
100
AcDbLine
 10
3030.0
 20
2550.0
 30
0.0
 11
3030.0
 21
2750.0
 31
0.0
  0
INSERT
  5
17D
330
178
100
AcDbEntity
  8
08_DIMENSIONS
 62
3
100
AcDbBlockReference
  2
_CLOSEDFILLED
 10
2226.0
 20
2750.0
 30
0.0
 41
20.0
 42
20.0
 50
180.0
  0
INSERT
  5
17F
330
178
100
AcDbEntity
  8
08_DIMENSIONS
 62
3
100
AcDbBlockReference
  2
_CLOSEDFILLED
 10
3030.0
 20
2750.0
 30
0.0
 41
20.0
 42
20.0
  0
LINE
  5
181
330
178
100
AcDbEntity
  8
0
 62
3
100
AcDbLine
 10
2246.0
 20
2750.0
 30
0.0
 11
2583.0
 21
2750.0
 31
0.0
  0
LINE
  5
182
330
178
100
AcDbEntity
  8
0
 62
3
100
AcDbLine
 10
2673.0
 20
2750.0
 30
0.0
 11
3010.0
 21
2750.0
 31
0.0
  0
MTEXT
  5
183
330
178
100
AcDbEntity
  8
08_DIMENSIONS
 62
3
100
AcDbMText
 10
2628.0
 20
2750.0
 30
0.0
 40
30.0
 71
5
  1
804
  7
CHINESE
  0
POINT
  5
184
330
178
100
AcDbEntity
  8
Defpoints
100
AcDbPoint
 10
2226.0
 20
2750.0
 30
0.0
  0
POINT
  5
185
330
178
100
AcDbEntity
  8
Defpoints
100
AcDbPoint
 10
2226.0
 20
2550.0
 30
0.0
  0
POINT
  5
186
330
178
100
AcDbEntity
  8
Defpoints
100
AcDbPoint
 10
3030.0
 20
2550.0
 30
0.0
  0
ENDBLK
  5
17A
330
178
100
AcDbEntity
  8
0
100
AcDbBlockEnd
  0
BLOCK
  5
189
330
188
100
AcDbEntity
  8
0
100
AcDbBlockBegin
  2
*D9
 70
1
 10
0.0
 20
0.0
 30
0.0
  3
*D9
  1

  0
LINE
  5
18B
330
188
100
AcDbEntity
  8
0
 62
3
100
AcDbLine
 10
3030.0
 20
2550.0
 30
0.0
 11
3030.0
 21
2750.0
 31
0.0
  0
LINE
  5
18C
330
188
100
AcDbEntity
  8
0
 62
3
100
AcDbLine
 10
3080.0
 20
2550.0
 30
0.0
 11
3080.0
 21
2750.0
 31
0.0
  0
INSERT
  5
18D
330
188
100
AcDbEntity
  8
08_DIMENSIONS
 62
3
100
AcDbBlockReference
  2
_CLOSEDFILLED
 10
3030.0
 20
2750.0
 30
0.0
 41
20.0
 42
20.0
 50
180.0
  0
INSERT
  5
18F
330
188
100
AcDbEntity
  8
08_DIMENSIONS
 62
3
100
AcDbBlockReference
  2
_CLOSEDFILLED
 10
3080.0
 20
2750.0
 30
0.0
 41
20.0
 42
20.0
  0
LINE
  5
191
330
188
100
AcDbEntity
  8
0
 62
3
100
AcDbLine
 10
3050.0
 20
2750.0
 30
0.0
 11
3060.0
 21
2750.0
 31
0.0
  0
MTEXT
  5
192
330
188
100
AcDbEntity
  8
08_DIMENSIONS
 62
3
100
AcDbMText
 10
3055.0
 20
2765.625
 30
0.0
 40
30.0
 71
5
  1
50
  7
CHINESE
  0
POINT
  5
193
330
188
100
AcDbEntity
  8
Defpoints
100
AcDbPoint
 10
3030.0
 20
2750.0
 30
0.0
  0
POINT
  5
194
330
188
100
AcDbEntity
  8
Defpoints
100
AcDbPoint
 10
3030.0
 20
2550.0
 30
0.0
  0
POINT
  5
195
330
188
100
AcDbEntity
  8
Defpoints
100
AcDbPoint
 10
3080.0
 20
2550.0
 30
0.0
  0
ENDBLK
  5
18A
330
188
100
AcDbEntity
  8
0
100
AcDbBlockEnd
  0
BLOCK
  5
198
330
197
100
AcDbEntity
  8
0
100
AcDbBlockBegin
  2
*D10
 70
1
 10
0.0
 20
0.0
 30
0.0
  3
*D10
  1

  0
LINE
  5
19A
330
197
100
AcDbEntity
  8
0
 62
3
100
AcDbLine
 10
0.0
 20
2550.0
 30
0.0
 11
0.0
 21
2900.0
 31
0.0
  0
LINE
  5
19B
330
197
100
AcDbEntity
  8
0
 62
3
100
AcDbLine
 10
3080.0
 20
2550.0
 30
0.0
 11
3080.0
 21
2900.0
 31
0.0
  0
INSERT
  5
19C
330
197
100
AcDbEntity
  8
08_DIMENSIONS
 62
3
100
AcDbBlockReference
  2
_CLOSEDFILLED
 10
0.0
 20
2900.0
 30
0.0
 41
20.0
 42
20.0
 50
180.0
  0
INSERT
  5
19E
330
197
100
AcDbEntity
  8
08_DIMENSIONS
 62
3
100
AcDbBlockReference
  2
_CLOSEDFILLED
 10
3080.0
 20
2900.0
 30
0.0
 41
20.0
 42
20.0
  0
LINE
  5
1A0
330
197
100
AcDbEntity
  8
0
 62
3
100
AcDbLine
 10
20.0
 20
2900.0
 30
0.0
 11
1480.0
 21
2900.0
 31
0.0
  0
LINE
  5
1A1
330
197
100
AcDbEntity
  8
0
 62
3
100
AcDbLine
 10
1600.0
 20
2900.0
 30
0.0
 11
3060.0
 21
2900.0
 31
0.0
  0
MTEXT
  5
1A2
330
197
100
AcDbEntity
  8
08_DIMENSIONS
 62
3
100
AcDbMText
 10
1540.0
 20
2900.0
 30
0.0
 40
30.0
 71
5
  1
3080
  7
CHINESE
  0
POINT
  5
1A3
330
197
100
AcDbEntity
  8
Defpoints
100
AcDbPoint
 10
0.0
 20
2900.0
 30
0.0
  0
POINT
  5
1A4
330
197
100
AcDbEntity
  8
Defpoints
100
AcDbPoint
 10
0.0
 20
2550.0
 30
0.0
  0
POINT
  5
1A5
330
197
100
AcDbEntity
  8
Defpoints
100
AcDbPoint
 10
3080.0
 20
2550.0
 30
0.0
  0
ENDBLK
  5
199
330
197
100
AcDbEntity
  8
0
100
AcDbBlockEnd
  0
BLOCK
  5
1A8
330
1A7
100
AcDbEntity
  8
0
100
AcDbBlockBegin
  2
*D11
 70
1
 10
0.0
 20
0.0
 30
0.0
  3
*D11
  1

  0
LINE
  5
1AA
330
1A7
100
AcDbEntity
  8
0
 62
3
100
AcDbLine
 10
3080.0
 20
0.0
 30
0.0
 11
3280.0
 21
0.0
 31
0.0
  0
LINE
  5
1AB
330
1A7
100
AcDbEntity
  8
0
 62
3
100
AcDbLine
 10
3080.0
 20
80.0
 30
0.0
 11
3280.0
 21
80.0
 31
0.0
  0
INSERT
  5
1AC
330
1A7
100
AcDbEntity
  8
08_DIMENSIONS
 62
3
100
AcDbBlockReference
  2
_CLOSEDFILLED
 10
3280.0
 20
0.0
 30
0.0
 41
20.0
 42
20.0
 50
270.0
  0
INSERT
  5
1AE
330
1A7
100
AcDbEntity
  8
08_DIMENSIONS
 62
3
100
AcDbBlockReference
  2
_CLOSEDFILLED
 10
3280.0
 20
80.0
 30
0.0
 41
20.0
 42
20.0
 50
90.0
  0
LINE
  5
1B0
330
1A7
100
AcDbEntity
  8
0
 62
3
100
AcDbLine
 10
3280.0
 20
20.0
 30
0.0
 11
3280.0
 21
60.0
 31
0.0
  0
MTEXT
  5
1B1
330
1A7
100
AcDbEntity
  8
08_DIMENSIONS
 62
3
100
AcDbMText
 10
3264.375
 20
40.0
 30
0.0
 40
30.0
 71
5
  1
80
  7
CHINESE
 50
90.0
  0
POINT
  5
1B2
330
1A7
100
AcDbEntity
  8
Defpoints
100
AcDbPoint
 10
3280.0
 20
0.0
 30
0.0
  0
POINT
  5
1B3
330
1A7
100
AcDbEntity
  8
Defpoints
100
AcDbPoint
 10
3080.0
 20
0.0
 30
0.0
  0
POINT
  5
1B4
330
1A7
100
AcDbEntity
  8
Defpoints
100
AcDbPoint
 10
3080.0
 20
80.0
 30
0.0
  0
ENDBLK
  5
1A9
330
1A7
100
AcDbEntity
  8
0
100
AcDbBlockEnd
  0
BLOCK
  5
1B7
330
1B6
100
AcDbEntity
  8
0
100
AcDbBlockBegin
  2
*D12
 70
1
 10
0.0
 20
0.0
 30
0.0
  3
*D12
  1

  0
LINE
  5
1B9
330
1B6
100
AcDbEntity
  8
0
 62
3
100
AcDbLine
 10
3080.0
 20
80.0
 30
0.0
 11
3280.0
 21
80.0
 31
0.0
  0
LINE
  5
1BA
330
1B6
100
AcDbEntity
  8
0
 62
3
100
AcDbLine
 10
3080.0
 20
830.0
 30
0.0
 11
3280.0
 21
830.0
 31
0.0
  0
INSERT
  5
1BB
330
1B6
100
AcDbEntity
  8
08_DIMENSIONS
 62
3
100
AcDbBlockReference
  2
_CLOSEDFILLED
 10
3280.0
 20
80.0
 30
0.0
 41
20.0
 42
20.0
 50
270.0
  0
INSERT
  5
1BD
330
1B6
100
AcDbEntity
  8
08_DIMENSIONS
 62
3
100
AcDbBlockReference
  2
_CLOSEDFILLED
 10
3280.0
 20
830.0
 30
0.0
 41
20.0
 42
20.0
 50
90.0
  0
LINE
  5
1BF
330
1B6
100
AcDbEntity
  8
0
 62
3
100
AcDbLine
 10
3280.0
 20
100.0
 30
0.0
 11
3280.0
 21
410.0
 31
0.0
  0
LINE
  5
1C0
330
1B6
100
AcDbEntity
  8
0
 62
3
100
AcDbLine
 10
3280.0
 20
500.0
 30
0.0
 11
3280.0
 21
810.0
 31
0.0
  0
MTEXT
  5
1C1
330
1B6
100
AcDbEntity
  8
08_DIMENSIONS
 62
3
100
AcDbMText
 10
3280.0
 20
455.0
 30
0.0
 40
30.0
 71
5
  1
750
  7
CHINESE
 50
90.0
  0
POINT
  5
1C2
330
1B6
100
AcDbEntity
  8
Defpoints
100
AcDbPoint
 10
3280.0
 20
80.0
 30
0.0
  0
POINT
  5
1C3
330
1B6
100
AcDbEntity
  8
Defpoints
100
AcDbPoint
 10
3080.0
 20
80.0
 30
0.0
  0
POINT
  5
1C4
330
1B6
100
AcDbEntity
  8
Defpoints
100
AcDbPoint
 10
3080.0
 20
830.0
 30
0.0
  0
ENDBLK
  5
1B8
330
1B6
100
AcDbEntity
  8
0
100
AcDbBlockEnd
  0
BLOCK
  5
1C7
330
1C6
100
AcDbEntity
  8
0
100
AcDbBlockBegin
  2
*D13
 70
1
 10
0.0
 20
0.0
 30
0.0
  3
*D13
  1

  0
LINE
  5
1C9
330
1C6
100
AcDbEntity
  8
0
 62
3
100
AcDbLine
 10
3080.0
 20
830.0
 30
0.0
 11
3280.0
 21
830.0
 31
0.0
  0
LINE
  5
1CA
330
1C6
100
AcDbEntity
  8
0
 62
3
100
AcDbLine
 10
3080.0
 20
850.0
 30
0.0
 11
3280.0
 21
850.0
 31
0.0
  0
INSERT
  5
1CB
330
1C6
100
AcDbEntity
  8
08_DIMENSIONS
 62
3
100
AcDbBlockReference
  2
_CLOSEDFILLED
 10
3280.0
 20
830.0
 30
0.0
 41
20.0
 42
20.0
 50
90.0
  0
INSERT
  5
1CD
330
1C6
100
AcDbEntity
  8
08_DIMENSIONS
 62
3
100
AcDbBlockReference
  2
_CLOSEDFILLED
 10
3280.0
 20
850.0
 30
0.0
 41
20.0
 42
20.0
 50
270.0
  0
LINE
  5
1CF
330
1C6
100
AcDbEntity
  8
0
 62
3
100
AcDbLine
 10
3280.0
 20
810.0
 30
0.0
 11
3280.0
 21
790.0
 31
0.0
  0
LINE
  5
1D0
330
1C6
100
AcDbEntity
  8
0
 62
3
100
AcDbLine
 10
3280.0
 20
870.0
 30
0.0
 11
3280.0
 21
890.0
 31
0.0
  0
LINE
  5
1D1
330
1C6
100
AcDbEntity
  8
0
 62
3
100
AcDbLine
 10
3280.0
 20
830.0
 30
0.0
 11
3280.0
 21
850.0
 31
0.0
  0
MTEXT
  5
1D2
330
1C6
100
AcDbEntity
  8
08_DIMENSIONS
 62
3
100
AcDbMText
 10
3264.375
 20
840.0
 30
0.0
 40
30.0
 71
5
  1
20
  7
CHINESE
 50
90.0
  0
POINT
  5
1D3
330
1C6
100
AcDbEntity
  8
Defpoints
100
AcDbPoint
 10
3280.0
 20
830.0
 30
0.0
  0
POINT
  5
1D4
330
1C6
100
AcDbEntity
  8
Defpoints
100
AcDbPoint
 10
3080.0
 20
830.0
 30
0.0
  0
POINT
  5
1D5
330
1C6
100
AcDbEntity
  8
Defpoints
100
AcDbPoint
 10
3080.0
 20
850.0
 30
0.0
  0
ENDBLK
  5
1C8
330
1C6
100
AcDbEntity
  8
0
100
AcDbBlockEnd
  0
BLOCK
  5
1D8
330
1D7
100
AcDbEntity
  8
0
100
AcDbBlockBegin
  2
*D14
 70
1
 10
0.0
 20
0.0
 30
0.0
  3
*D14
  1

  0
LINE
  5
1DA
330
1D7
100
AcDbEntity
  8
0
 62
3
100
AcDbLine
 10
3080.0
 20
850.0
 30
0.0
 11
3280.0
 21
850.0
 31
0.0
  0
LINE
  5
1DB
330
1D7
100
AcDbEntity
  8
0
 62
3
100
AcDbLine
 10
3080.0
 20
1400.0
 30
0.0
 11
3280.0
 21
1400.0
 31
0.0
  0
INSERT
  5
1DC
330
1D7
100
AcDbEntity
  8
08_DIMENSIONS
 62
3
100
AcDbBlockReference
  2
_CLOSEDFILLED
 10
3280.0
 20
850.0
 30
0.0
 41
20.0
 42
20.0
 50
270.0
  0
INSERT
  5
1DE
330
1D7
100
AcDbEntity
  8
08_DIMENSIONS
 62
3
100
AcDbBlockReference
  2
_CLOSEDFILLED
 10
3280.0
 20
1400.0
 30
0.0
 41
20.0
 42
20.0
 50
90.0
  0
LINE
  5
1E0
330
1D7
100
AcDbEntity
  8
0
 62
3
100
AcDbLine
 10
3280.0
 20
870.0
 30
0.0
 11
3280.0
 21
1080.0
 31
0.0
  0
LINE
  5
1E1
330
1D7
100
AcDbEntity
  8
0
 62
3
100
AcDbLine
 10
3280.0
 20
1170.0
 30
0.0
 11
3280.0
 21
1380.0
 31
0.0
  0
MTEXT
  5
1E2
330
1D7
100
AcDbEntity
  8
08_DIMENSIONS
 62
3
100
AcDbMText
 10
3280.0
 20
1125.0
 30
0.0
 40
30.0
 71
5
  1
550
  7
CHINESE
 50
90.0
  0
POINT
  5
1E3
330
1D7
100
AcDbEntity
  8
Defpoints
100
AcDbPoint
 10
3280.0
 20
850.0
 30
0.0
  0
POINT
  5
1E4
330
1D7
100
AcDbEntity
  8
Defpoints
100
AcDbPoint
 10
3080.0
 20
850.0
 30
0.0
  0
POINT
  5
1E5
330
1D7
100
AcDbEntity
  8
Defpoints
100
AcDbPoint
 10
3080.0
 20
1400.0
 30
0.0
  0
ENDBLK
  5
1D9
330
1D7
100
AcDbEntity
  8
0
100
AcDbBlockEnd
  0
BLOCK
  5
1E8
330
1E7
100
AcDbEntity
  8
0
100
AcDbBlockBegin
  2
*D15
 70
1
 10
0.0
 20
0.0
 30
0.0
  3
*D15
  1

  0
LINE
  5
1EA
330
1E7
100
AcDbEntity
  8
0
 62
3
100
AcDbLine
 10
3080.0
 20
1400.0
 30
0.0
 11
3280.0
 21
1400.0
 31
0.0
  0
LINE
  5
1EB
330
1E7
100
AcDbEntity
  8
0
 62
3
100
AcDbLine
 10
3080.0
 20
2500.0
 30
0.0
 11
3280.0
 21
2500.0
 31
0.0
  0
INSERT
  5
1EC
330
1E7
100
AcDbEntity
  8
08_DIMENSIONS
 62
3
100
AcDbBlockReference
  2
_CLOSEDFILLED
 10
3280.0
 20
1400.0
 30
0.0
 41
20.0
 42
20.0
 50
270.0
  0
INSERT
  5
1EE
330
1E7
100
AcDbEntity
  8
08_DIMENSIONS
 62
3
100
AcDbBlockReference
  2
_CLOSEDFILLED
 10
3280.0
 20
2500.0
 30
0.0
 41
20.0
 42
20.0
 50
90.0
  0
LINE
  5
1F0
330
1E7
100
AcDbEntity
  8
0
 62
3
100
AcDbLine
 10
3280.0
 20
1420.0
 30
0.0
 11
3280.0
 21
1890.0
 31
0.0
  0
LINE
  5
1F1
330
1E7
100
AcDbEntity
  8
0
 62
3
100
AcDbLine
 10
3280.0
 20
2010.0
 30
0.0
 11
3280.0
 21
2480.0
 31
0.0
  0
MTEXT
  5
1F2
330
1E7
100
AcDbEntity
  8
08_DIMENSIONS
 62
3
100
AcDbMText
 10
3280.0
 20
1950.0
 30
0.0
 40
30.0
 71
5
  1
1100
  7
CHINESE
 50
90.0
  0
POINT
  5
1F3
330
1E7
100
AcDbEntity
  8
Defpoints
100
AcDbPoint
 10
3280.0
 20
1400.0
 30
0.0
  0
POINT
  5
1F4
330
1E7
100
AcDbEntity
  8
Defpoints
100
AcDbPoint
 10
3080.0
 20
1400.0
 30
0.0
  0
POINT
  5
1F5
330
1E7
100
AcDbEntity
  8
Defpoints
100
AcDbPoint
 10
3080.0
 20
2500.0
 30
0.0
  0
ENDBLK
  5
1E9
330
1E7
100
AcDbEntity
  8
0
100
AcDbBlockEnd
  0
BLOCK
  5
1F8
330
1F7
100
AcDbEntity
  8
0
100
AcDbBlockBegin
  2
*D16
 70
1
 10
0.0
 20
0.0
 30
0.0
  3
*D16
  1

  0
LINE
  5
1FA
330
1F7
100
AcDbEntity
  8
0
 62
3
100
AcDbLine
 10
3080.0
 20
2500.0
 30
0.0
 11
3280.0
 21
2500.0
 31
0.0
  0
LINE
  5
1FB
330
1F7
100
AcDbEntity
  8
0
 62
3
100
AcDbLine
 10
3080.0
 20
2550.0
 30
0.0
 11
3280.0
 21
2550.0
 31
0.0
  0
INSERT
  5
1FC
330
1F7
100
AcDbEntity
  8
08_DIMENSIONS
 62
3
100
AcDbBlockReference
  2
_CLOSEDFILLED
 10
3280.0
 20
2500.0
 30
0.0
 41
20.0
 42
20.0
 50
270.0
  0
INSERT
  5
1FE
330
1F7
100
AcDbEntity
  8
08_DIMENSIONS
 62
3
100
AcDbBlockReference
  2
_CLOSEDFILLED
 10
3280.0
 20
2550.0
 30
0.0
 41
20.0
 42
20.0
 50
90.0
  0
LINE
  5
200
330
1F7
100
AcDbEntity
  8
0
 62
3
100
AcDbLine
 10
3280.0
 20
2520.0
 30
0.0
 11
3280.0
 21
2530.0
 31
0.0
  0
MTEXT
  5
201
330
1F7
100
AcDbEntity
  8
08_DIMENSIONS
 62
3
100
AcDbMText
 10
3264.375
 20
2525.0
 30
0.0
 40
30.0
 71
5
  1
50
  7
CHINESE
 50
90.0
  0
POINT
  5
202
330
1F7
100
AcDbEntity
  8
Defpoints
100
AcDbPoint
 10
3280.0
 20
2500.0
 30
0.0
  0
POINT
  5
203
330
1F7
100
AcDbEntity
  8
Defpoints
100
AcDbPoint
 10
3080.0
 20
2500.0
 30
0.0
  0
POINT
  5
204
330
1F7
100
AcDbEntity
  8
Defpoints
100
AcDbPoint
 10
3080.0
 20
2550.0
 30
0.0
  0
ENDBLK
  5
1F9
330
1F7
100
AcDbEntity
  8
0
100
AcDbBlockEnd
  0
BLOCK
  5
207
330
206
100
AcDbEntity
  8
0
100
AcDbBlockBegin
  2
*D17
 70
1
 10
0.0
 20
0.0
 30
0.0
  3
*D17
  1

  0
LINE
  5
209
330
206
100
AcDbEntity
  8
0
 62
3
100
AcDbLine
 10
3080.0
 20
0.0
 30
0.0
 11
3430.0
 21
0.0
 31
0.0
  0
LINE
  5
20A
330
206
100
AcDbEntity
  8
0
 62
3
100
AcDbLine
 10
3080.0
 20
2550.0
 30
0.0
 11
3430.0
 21
2550.0
 31
0.0
  0
INSERT
  5
20B
330
206
100
AcDbEntity
  8
08_DIMENSIONS
 62
3
100
AcDbBlockReference
  2
_CLOSEDFILLED
 10
3430.0
 20
0.0
 30
0.0
 41
20.0
 42
20.0
 50
270.0
  0
INSERT
  5
20D
330
206
100
AcDbEntity
  8
08_DIMENSIONS
 62
3
100
AcDbBlockReference
  2
_CLOSEDFILLED
 10
3430.0
 20
2550.0
 30
0.0
 41
20.0
 42
20.0
 50
90.0
  0
LINE
  5
20F
330
206
100
AcDbEntity
  8
0
 62
3
100
AcDbLine
 10
3430.0
 20
20.0
 30
0.0
 11
3430.0
 21
1215.0
 31
0.0
  0
LINE
  5
210
330
206
100
AcDbEntity
  8
0
 62
3
100
AcDbLine
 10
3430.0
 20
1335.0
 30
0.0
 11
3430.0
 21
2530.0
 31
0.0
  0
MTEXT
  5
211
330
206
100
AcDbEntity
  8
08_DIMENSIONS
 62
3
100
AcDbMText
 10
3430.0
 20
1275.0
 30
0.0
 40
30.0
 71
5
  1
2550
  7
CHINESE
 50
90.0
  0
POINT
  5
212
330
206
100
AcDbEntity
  8
Defpoints
100
AcDbPoint
 10
3430.0
 20
0.0
 30
0.0
  0
POINT
  5
213
330
206
100
AcDbEntity
  8
Defpoints
100
AcDbPoint
 10
3080.0
 20
0.0
 30
0.0
  0
POINT
  5
214
330
206
100
AcDbEntity
  8
Defpoints
100
AcDbPoint
 10
3080.0
 20
2550.0
 30
0.0
  0
ENDBLK
  5
208
330
206
100
AcDbEntity
  8
0
100
AcDbBlockEnd
  0
ENDSEC
  0
SECTION
  2
ENTITIES
  0
LWPOLYLINE
  5
94
330
17
100
AcDbEntity
  8
01_FILLER
100
AcDbPolyline
 90
5
 70
0
 10
0.0
 20
0.0
 10
3030.0
 20
0.0
 10
3030.0
 20
80.0
 10
0.0
 20
80.0
 10
0.0
 20
0.0
  0
MTEXT
  5
95
330
17
100
AcDbEntity
  8
09_TEXT
100
AcDbMText
 10
1540.0
 20
40.0
 30
0.0
 40
28.0
 71
5
  1
\U+6a2a\U+5411\U+8d2f\U+901a\U+8e22\U+811a\U+677f
  7
CHINESE
  0
LWPOLYLINE
  5
96
330
17
100
AcDbEntity
  8
01_FILLER
100
AcDbPolyline
 90
5
 70
0
 10
0.0
 20
2500.0
 10
3080.0
 20
2500.0
 10
3080.0
 20
2550.0
 10
0.0
 20
2550.0
 10
0.0
 20
2500.0
  0
MTEXT
  5
97
330
17
100
AcDbEntity
  8
09_TEXT
100
AcDbMText
 10
1540.0
 20
2525.0
 30
0.0
 40
28.0
 71
5
  1
\U+9876\U+90e850mm\U+6536\U+53e3\U+677f\U+5bf9\U+63a5\U+53cc\U+773c\U+76ae\U+540a\U+9876
  7
CHINESE
  0
LWPOLYLINE
  5
98
330
17
100
AcDbEntity
  8
01_FILLER
100
AcDbPolyline
 90
5
 70
0
 10
3030.0
 20
80.0
 10
3080.0
 20
80.0
 10
3080.0
 20
2550.0
 10
3030.0
 20
2550.0
 10
3030.0
 20
80.0
  0
MTEXT
  5
99
330
17
100
AcDbEntity
  8
09_TEXT
100
AcDbMText
 10
3055.0
 20
1275.0
 30
0.0
 40
28.0
 71
5
  1
\U+9760\U+5899\U+5c01\U+677f
  7
CHINESE
  0
LWPOLYLINE
  5
9A
330
17
100
AcDbEntity
  8
02_CABINET
100
AcDbPolyline
 90
5
 70
0
 10
0.0
 20
80.0
 10
18.0
 20
80.0
 10
18.0
 20
2500.0
 10
0.0
 20
2500.0
 10
0.0
 20
80.0
  0
LWPOLYLINE
  5
9B
330
17
100
AcDbEntity
  8
02_CABINET
100
AcDbPolyline
 90
5
 70
0
 10
600.0
 20
80.0
 10
618.0
 20
80.0
 10
618.0
 20
2500.0
 10
600.0
 20
2500.0
 10
600.0
 20
80.0
  0
LWPOLYLINE
  5
9C
330
17
100
AcDbEntity
  8
03_DASHED_BOARD
  6
DASHED
100
AcDbPolyline
 90
5
 70
0
 10
18.0
 20
830.0
 10
600.0
 20
830.0
 10
600.0
 20
848.0
 10
18.0
 20
848.0
 10
18.0
 20
830.0
  0
LINE
  5
9D
330
17
100
AcDbEntity
  8
06_LED_STRIP
  6
DASHED
100
AcDbLine
 10
28.0
 20
828.0
 30
0.0
 11
590.0
 21
828.0
 31
0.0
  0
MTEXT
  5
9E
330
17
100
AcDbEntity
  8
06_LED_STRIP
100
AcDbMText
 10
309.0
 20
815.0
 30
0.0
 40
20.0
 71
5
  1
\U+5e95\U+90e8\U+6697\U+85cfLED\U+706f\U+5e26
  7
CHINESE
  0
LWPOLYLINE
  5
9F
330
17
100
AcDbEntity
  8
03_DASHED_BOARD
  6
DASHED
100
AcDbPolyline
 90
5
 70
0
 10
18.0
 20
1400.0
 10
600.0
 20
1400.0
 10
600.0
 20
1418.0
 10
18.0
 20
1418.0
 10
18.0
 20
1400.0
  0
LINE
  5
A0
330
17
100
AcDbEntity
  8
06_LED_STRIP
  6
DASHED
100
AcDbLine
 10
28.0
 20
1398.0
 30
0.0
 11
590.0
 21
1398.0
 31
0.0
  0
MTEXT
  5
A1
330
17
100
AcDbEntity
  8
06_LED_STRIP
100
AcDbMText
 10
309.0
 20
1385.0
 30
0.0
 40
20.0
 71
5
  1
\U+5e95\U+90e8\U+6697\U+85cfLED\U+706f\U+5e26
  7
CHINESE
  0
LWPOLYLINE
  5
A2
330
17
100
AcDbEntity
  8
03_DASHED_BOARD
  6
DASHED
100
AcDbPolyline
 90
5
 70
0
 10
18.0
 20
1950.0
 10
600.0
 20
1950.0
 10
600.0
 20
1968.0
 10
18.0
 20
1968.0
 10
18.0
 20
1950.0
  0
LINE
  5
A3
330
17
100
AcDbEntity
  8
06_LED_STRIP
  6
DASHED
100
AcDbLine
 10
28.0
 20
1948.0
 30
0.0
 11
590.0
 21
1948.0
 31
0.0
  0
MTEXT
  5
A4
330
17
100
AcDbEntity
  8
06_LED_STRIP
100
AcDbMText
 10
309.0
 20
1935.0
 30
0.0
 40
20.0
 71
5
  1
\U+5e95\U+90e8\U+6697\U+85cfLED\U+706f\U+5e26
  7
CHINESE
  0
LWPOLYLINE
  5
A5
330
17
100
AcDbEntity
  8
03_DASHED_BOARD
  6
DASHED
100
AcDbPolyline
 90
5
 70
0
 10
18.0
 20
80.0
 10
600.0
 20
80.0
 10
600.0
 20
98.0
 10
18.0
 20
98.0
 10
18.0
 20
80.0
  0
LWPOLYLINE
  5
A6
330
17
100
AcDbEntity
  8
03_DASHED_BOARD
  6
DASHED
100
AcDbPolyline
 90
5
 70
0
 10
18.0
 20
2482.0
 10
600.0
 20
2482.0
 10
600.0
 20
2500.0
 10
18.0
 20
2500.0
 10
18.0
 20
2482.0
  0
LWPOLYLINE
  5
A7
330
17
100
AcDbEntity
  8
05_GLASS_ALU
100
AcDbPolyline
 90
5
 70
0
 10
18.0
 20
80.0
 10
600.0
 20
80.0
 10
600.0
 20
830.0
 10
18.0
 20
830.0
 10
18.0
 20
80.0
  0
LWPOLYLINE
  5
A8
330
17
100
AcDbEntity
  8
05_GLASS_ALU
100
AcDbPolyline
 90
5
 70
0
 10
38.0
 20
100.0
 10
580.0
 20
100.0
 10
580.0
 20
810.0
 10
38.0
 20
810.0
 10
38.0
 20
100.0
  0
LWPOLYLINE
  5
A9
330
17
100
AcDbEntity
  8
04_DOOR_LINES
100
AcDbPolyline
 90
3
 70
0
 10
18.0
 20
80.0
 10
600.0
 20
455.0
 10
18.0
 20
830.0
  0
LINE
  5
AA
330
17
100
AcDbEntity
  8
05_GLASS_ALU
100
AcDbLine
 10
289.0
 20
435.0
 30
0.0
 11
329.0
 21
475.0
 31
0.0
  0
LINE
  5
AB
330
17
100
AcDbEntity
  8
05_GLASS_ALU
100
AcDbLine
 10
299.0
 20
425.0
 30
0.0
 11
339.0
 21
465.0
 31
0.0
  0
MTEXT
  5
AC
330
17
100
AcDbEntity
  8
05_GLASS_ALU
100
AcDbMText
 10
309.0
 20
505.0
 30
0.0
 40
25.0
 71
5
  1
\U+7070\U+73bb\U+4e0b\U+67dc\U+95e8
  7
CHINESE
  0
LWPOLYLINE
  5
AD
330
17
100
AcDbEntity
  8
05_GLASS_ALU
100
AcDbPolyline
 90
5
 70
0
 10
18.0
 20
830.0
 10
600.0
 20
830.0
 10
600.0
 20
2500.0
 10
18.0
 20
2500.0
 10
18.0
 20
830.0
  0
LWPOLYLINE
  5
AE
330
17
100
AcDbEntity
  8
05_GLASS_ALU
100
AcDbPolyline
 90
5
 70
0
 10
38.0
 20
850.0
 10
580.0
 20
850.0
 10
580.0
 20
2480.0
 10
38.0
 20
2480.0
 10
38.0
 20
850.0
  0
LWPOLYLINE
  5
AF
330
17
100
AcDbEntity
  8
04_DOOR_LINES
100
AcDbPolyline
 90
3
 70
0
 10
18.0
 20
830.0
 10
600.0
 20
1665.0
 10
18.0
 20
2500.0
  0
LINE
  5
B0
330
17
100
AcDbEntity
  8
05_GLASS_ALU
100
AcDbLine
 10
289.0
 20
1645.0
 30
0.0
 11
329.0
 21
1685.0
 31
0.0
  0
LINE
  5
B1
330
17
100
AcDbEntity
  8
05_GLASS_ALU
100
AcDbLine
 10
299.0
 20
1635.0
 30
0.0
 11
339.0
 21
1675.0
 31
0.0
  0
MTEXT
  5
B2
330
17
100
AcDbEntity
  8
05_GLASS_ALU
100
AcDbMText
 10
309.0
 20
1715.0
 30
0.0
 40
25.0
 71
5
  1
\U+7070\U+73bb\U+9ad8\U+67dc\U+95e8\P+\U+6309\U+5f39\U+5668
  7
CHINESE
  0
LWPOLYLINE
  5
B3
330
17
100
AcDbEntity
  8
02_CABINET
100
AcDbPolyline
 90
5
 70
0
 10
1404.0
 20
80.0
 10
1422.0
 20
80.0
 10
1422.0
 20
830.0
 10
1404.0
 20
830.0
 10
1404.0
 20
80.0
  0
LWPOLYLINE
  5
B4
330
17
100
AcDbEntity
  8
02_CABINET
100
AcDbPolyline
 90
5
 70
0
 10
1404.0
 20
1400.0
 10
1422.0
 20
1400.0
 10
1422.0
 20
2500.0
 10
1404.0
 20
2500.0
 10
1404.0
 20
1400.0
  0
LWPOLYLINE
  5
B5
330
17
100
AcDbEntity
  8
02_CABINET
100
AcDbPolyline
 90
5
 70
0
 10
2208.0
 20
80.0
 10
2226.0
 20
80.0
 10
2226.0
 20
830.0
 10
2208.0
 20
830.0
 10
2208.0
 20
80.0
  0
LWPOLYLINE
  5
B6
330
17
100
AcDbEntity
  8
02_CABINET
100
AcDbPolyline
 90
5
 70
0
 10
2208.0
 20
1400.0
 10
2226.0
 20
1400.0
 10
2226.0
 20
2500.0
 10
2208.0
 20
2500.0
 10
2208.0
 20
1400.0
  0
LWPOLYLINE
  5
B7
330
17
100
AcDbEntity
  8
02_CABINET
100
AcDbPolyline
 90
5
 70
0
 10
3012.0
 20
80.0
 10
3030.0
 20
80.0
 10
3030.0
 20
830.0
 10
3012.0
 20
830.0
 10
3012.0
 20
80.0
  0
LWPOLYLINE
  5
B8
330
17
100
AcDbEntity
  8
02_CABINET
100
AcDbPolyline
 90
5
 70
0
 10
3012.0
 20
1400.0
 10
3030.0
 20
1400.0
 10
3030.0
 20
2500.0
 10
3012.0
 20
2500.0
 10
3012.0
 20
1400.0
  0
LWPOLYLINE
  5
B9
330
17
100
AcDbEntity
  8
02_CABINET
100
AcDbPolyline
 90
5
 70
0
 10
618.0
 20
830.0
 10
3012.0
 20
830.0
 10
3012.0
 20
850.0
 10
618.0
 20
850.0
 10
618.0
 20
830.0
  0
MTEXT
  5
BA
330
17
100
AcDbEntity
  8
09_TEXT
100
AcDbMText
 10
1815.0
 20
840.0
 30
0.0
 40
28.0
 71
5
  1
20mm \U+6781\U+7b80\U+5ca9\U+677f\U+53f0\U+9762
  7
CHINESE
  0
LWPOLYLINE
  5
BB
330
17
100
AcDbEntity
  8
02_CABINET
100
AcDbPolyline
 90
5
 70
0
 10
618.0
 20
850.0
 10
3012.0
 20
850.0
 10
3012.0
 20
890.0
 10
618.0
 20
890.0
 10
618.0
 20
850.0
  0
MTEXT
  5
BC
330
17
100
AcDbEntity
  8
09_TEXT
100
AcDbMText
 10
1815.0
 20
1100.0
 30
0.0
 40
35.0
 71
5
  1
\U+5ca9\U+677f\U+5899\U+9762\U+53ef\U+89c6\U+533a + \U+9884\U+7559\U+6ed1\U+8f68\U+63d2\U+5ea7
  7
CHINESE
  0
LWPOLYLINE
  5
BD
330
17
100
AcDbEntity
  8
03_DASHED_BOARD
  6
DASHED
100
AcDbPolyline
 90
5
 70
0
 10
618.0
 20
80.0
 10
1404.0
 20
80.0
 10
1404.0
 20
98.0
 10
618.0
 20
98.0
 10
618.0
 20
80.0
  0
LWPOLYLINE
  5
BE
330
17
100
AcDbEntity
  8
03_DASHED_BOARD
  6
DASHED
100
AcDbPolyline
 90
5
 70
0
 10
618.0
 20
812.0
 10
1404.0
 20
812.0
 10
1404.0
 20
830.0
 10
618.0
 20
830.0
 10
618.0
 20
812.0
  0
LWPOLYLINE
  5
BF
330
17
100
AcDbEntity
  8
04_DOOR_LINES
100
AcDbPolyline
 90
5
 70
0
 10
618.0
 20
652.0
 10
1404.0
 20
652.0
 10
1404.0
 20
812.0
 10
618.0
 20
812.0
 10
618.0
 20
652.0
  0
MTEXT
  5
C0
330
17
100
AcDbEntity
  8
09_TEXT
100
AcDbMText
 10
1011.0
 20
732.0
 30
0.0
 40
28.0
 71
5
  1
\U+514d\U+62c9\U+624b\U+62bd\U+5c49
  7
CHINESE
  0
LWPOLYLINE
  5
C1
330
17
100
AcDbEntity
  8
04_DOOR_LINES
100
AcDbPolyline
 90
3
 70
0
 10
618.0
 20
80.0
 10
1011.0
 20
366.0
 10
618.0
 20
652.0
  0
LWPOLYLINE
  5
C2
330
17
100
AcDbEntity
  8
04_DOOR_LINES
100
AcDbPolyline
 90
3
 70
0
 10
1404.0
 20
80.0
 10
1011.0
 20
366.0
 10
1404.0
 20
652.0
  0
MTEXT
  5
C3
330
17
100
AcDbEntity
  8
09_TEXT
100
AcDbMText
 10
1011.0
 20
366.0
 30
0.0
 40
28.0
 71
5
  1
\U+5b9e\U+6728\U+514d\U+62c9\U+624b\U+95e8
  7
CHINESE
  0
LWPOLYLINE
  5
C4
330
17
100
AcDbEntity
  8
03_DASHED_BOARD
  6
DASHED
100
AcDbPolyline
 90
5
 70
0
 10
618.0
 20
1400.0
 10
1404.0
 20
1400.0
 10
1404.0
 20
1418.0
 10
618.0
 20
1418.0
 10
618.0
 20
1400.0
  0
LWPOLYLINE
  5
C5
330
17
100
AcDbEntity
  8
03_DASHED_BOARD
  6
DASHED
100
AcDbPolyline
 90
5
 70
0
 10
618.0
 20
2482.0
 10
1404.0
 20
2482.0
 10
1404.0
 20
2500.0
 10
618.0
 20
2500.0
 10
618.0
 20
2482.0
  0
LWPOLYLINE
  5
C6
330
17
100
AcDbEntity
  8
03_DASHED_BOARD
  6
DASHED
100
AcDbPolyline
 90
5
 70
0
 10
618.0
 20
1760.0
 10
1404.0
 20
1760.0
 10
1404.0
 20
1778.0
 10
618.0
 20
1778.0
 10
618.0
 20
1760.0
  0
LWPOLYLINE
  5
C7
330
17
100
AcDbEntity
  8
03_DASHED_BOARD
  6
DASHED
100
AcDbPolyline
 90
5
 70
0
 10
618.0
 20
2120.0
 10
1404.0
 20
2120.0
 10
1404.0
 20
2138.0
 10
618.0
 20
2138.0
 10
618.0
 20
2120.0
  0
LWPOLYLINE
  5
C8
330
17
100
AcDbEntity
  8
04_DOOR_LINES
100
AcDbPolyline
 90
3
 70
0
 10
618.0
 20
1380.0
 10
1011.0
 20
1940.0
 10
618.0
 20
2500.0
  0
LWPOLYLINE
  5
C9
330
17
100
AcDbEntity
  8
04_DOOR_LINES
100
AcDbPolyline
 90
3
 70
0
 10
1404.0
 20
1380.0
 10
1011.0
 20
1940.0
 10
1404.0
 20
2500.0
  0
MTEXT
  5
CA
330
17
100
AcDbEntity
  8
06_LED_STRIP
100
AcDbMText
 10
1011.0
 20
1940.0
 30
0.0
 40
28.0
 71
5
  1
\U+6309\U+5f39\U+5668
  7
CHINESE
  0
LINE
  5
CB
330
17
100
AcDbEntity
  8
06_LED_STRIP
  6
DASHED
100
AcDbLine
 10
628.0
 20
1398.0
 30
0.0
 11
1394.0
 21
1398.0
 31
0.0
  0
MTEXT
  5
CC
330
17
100
AcDbEntity
  8
06_LED_STRIP
100
AcDbMText
 10
1011.0
 20
1380.0
 30
0.0
 40
20.0
 71
5
  1
LED\U+6697\U+85cf\U+706f\U+5e26
  7
CHINESE
  0
LWPOLYLINE
  5
CD
330
17
100
AcDbEntity
  8
03_DASHED_BOARD
  6
DASHED
100
AcDbPolyline
 90
5
 70
0
 10
1422.0
 20
80.0
 10
2208.0
 20
80.0
 10
2208.0
 20
98.0
 10
1422.0
 20
98.0
 10
1422.0
 20
80.0
  0
LWPOLYLINE
  5
CE
330
17
100
AcDbEntity
  8
03_DASHED_BOARD
  6
DASHED
100
AcDbPolyline
 90
5
 70
0
 10
1422.0
 20
812.0
 10
2208.0
 20
812.0
 10
2208.0
 20
830.0
 10
1422.0
 20
830.0
 10
1422.0
 20
812.0
  0
LWPOLYLINE
  5
CF
330
17
100
AcDbEntity
  8
04_DOOR_LINES
100
AcDbPolyline
 90
5
 70
0
 10
1422.0
 20
652.0
 10
2208.0
 20
652.0
 10
2208.0
 20
812.0
 10
1422.0
 20
812.0
 10
1422.0
 20
652.0
  0
MTEXT
  5
D0
330
17
100
AcDbEntity
  8
09_TEXT
100
AcDbMText
 10
1815.0
 20
732.0
 30
0.0
 40
28.0
 71
5
  1
\U+514d\U+62c9\U+624b\U+62bd\U+5c49
  7
CHINESE
  0
LWPOLYLINE
  5
D1
330
17
100
AcDbEntity
  8
04_DOOR_LINES
100
AcDbPolyline
 90
3
 70
0
 10
1422.0
 20
80.0
 10
1815.0
 20
366.0
 10
1422.0
 20
652.0
  0
LWPOLYLINE
  5
D2
330
17
100
AcDbEntity
  8
04_DOOR_LINES
100
AcDbPolyline
 90
3
 70
0
 10
2208.0
 20
80.0
 10
1815.0
 20
366.0
 10
2208.0
 20
652.0
  0
MTEXT
  5
D3
330
17
100
AcDbEntity
  8
09_TEXT
100
AcDbMText
 10
1815.0
 20
366.0
 30
0.0
 40
28.0
 71
5
  1
\U+5b9e\U+6728\U+514d\U+62c9\U+624b\U+95e8
  7
CHINESE
  0
LWPOLYLINE
  5
D4
330
17
100
AcDbEntity
  8
03_DASHED_BOARD
  6
DASHED
100
AcDbPolyline
 90
5
 70
0
 10
1422.0
 20
1400.0
 10
2208.0
 20
1400.0
 10
2208.0
 20
1418.0
 10
1422.0
 20
1418.0
 10
1422.0
 20
1400.0
  0
LWPOLYLINE
  5
D5
330
17
100
AcDbEntity
  8
03_DASHED_BOARD
  6
DASHED
100
AcDbPolyline
 90
5
 70
0
 10
1422.0
 20
2482.0
 10
2208.0
 20
2482.0
 10
2208.0
 20
2500.0
 10
1422.0
 20
2500.0
 10
1422.0
 20
2482.0
  0
LWPOLYLINE
  5
D6
330
17
100
AcDbEntity
  8
03_DASHED_BOARD
  6
DASHED
100
AcDbPolyline
 90
5
 70
0
 10
1422.0
 20
1760.0
 10
2208.0
 20
1760.0
 10
2208.0
 20
1778.0
 10
1422.0
 20
1778.0
 10
1422.0
 20
1760.0
  0
LWPOLYLINE
  5
D7
330
17
100
AcDbEntity
  8
03_DASHED_BOARD
  6
DASHED
100
AcDbPolyline
 90
5
 70
0
 10
1422.0
 20
2120.0
 10
2208.0
 20
2120.0
 10
2208.0
 20
2138.0
 10
1422.0
 20
2138.0
 10
1422.0
 20
2120.0
  0
LWPOLYLINE
  5
D8
330
17
100
AcDbEntity
  8
04_DOOR_LINES
100
AcDbPolyline
 90
3
 70
0
 10
1422.0
 20
1380.0
 10
1815.0
 20
1940.0
 10
1422.0
 20
2500.0
  0
LWPOLYLINE
  5
D9
330
17
100
AcDbEntity
  8
04_DOOR_LINES
100
AcDbPolyline
 90
3
 70
0
 10
2208.0
 20
1380.0
 10
1815.0
 20
1940.0
 10
2208.0
 20
2500.0
  0
MTEXT
  5
DA
330
17
100
AcDbEntity
  8
06_LED_STRIP
100
AcDbMText
 10
1815.0
 20
1940.0
 30
0.0
 40
28.0
 71
5
  1
\U+6309\U+5f39\U+5668
  7
CHINESE
  0
LINE
  5
DB
330
17
100
AcDbEntity
  8
06_LED_STRIP
  6
DASHED
100
AcDbLine
 10
1432.0
 20
1398.0
 30
0.0
 11
2198.0
 21
1398.0
 31
0.0
  0
MTEXT
  5
DC
330
17
100
AcDbEntity
  8
06_LED_STRIP
100
AcDbMText
 10
1815.0
 20
1380.0
 30
0.0
 40
20.0
 71
5
  1
LED\U+6697\U+85cf\U+706f\U+5e26
  7
CHINESE
  0
LWPOLYLINE
  5
DD
330
17
100
AcDbEntity
  8
03_DASHED_BOARD
  6
DASHED
100
AcDbPolyline
 90
5
 70
0
 10
2226.0
 20
80.0
 10
3012.0
 20
80.0
 10
3012.0
 20
98.0
 10
2226.0
 20
98.0
 10
2226.0
 20
80.0
  0
LWPOLYLINE
  5
DE
330
17
100
AcDbEntity
  8
03_DASHED_BOARD
  6
DASHED
100
AcDbPolyline
 90
5
 70
0
 10
2226.0
 20
812.0
 10
3012.0
 20
812.0
 10
3012.0
 20
830.0
 10
2226.0
 20
830.0
 10
2226.0
 20
812.0
  0
LWPOLYLINE
  5
DF
330
17
100
AcDbEntity
  8
04_DOOR_LINES
100
AcDbPolyline
 90
5
 70
0
 10
2226.0
 20
652.0
 10
3012.0
 20
652.0
 10
3012.0
 20
812.0
 10
2226.0
 20
812.0
 10
2226.0
 20
652.0
  0
MTEXT
  5
E0
330
17
100
AcDbEntity
  8
09_TEXT
100
AcDbMText
 10
2619.0
 20
732.0
 30
0.0
 40
28.0
 71
5
  1
\U+514d\U+62c9\U+624b\U+62bd\U+5c49
  7
CHINESE
  0
LWPOLYLINE
  5
E1
330
17
100
AcDbEntity
  8
04_DOOR_LINES
100
AcDbPolyline
 90
3
 70
0
 10
2226.0
 20
80.0
 10
2619.0
 20
366.0
 10
2226.0
 20
652.0
  0
LWPOLYLINE
  5
E2
330
17
100
AcDbEntity
  8
04_DOOR_LINES
100
AcDbPolyline
 90
3
 70
0
 10
3012.0
 20
80.0
 10
2619.0
 20
366.0
 10
3012.0
 20
652.0
  0
MTEXT
  5
E3
330
17
100
AcDbEntity
  8
09_TEXT
100
AcDbMText
 10
2619.0
 20
366.0
 30
0.0
 40
28.0
 71
5
  1
\U+5b9e\U+6728\U+514d\U+62c9\U+624b\U+95e8
  7
CHINESE
  0
LWPOLYLINE
  5
E4
330
17
100
AcDbEntity
  8
03_DASHED_BOARD
  6
DASHED
100
AcDbPolyline
 90
5
 70
0
 10
2226.0
 20
1400.0
 10
3012.0
 20
1400.0
 10
3012.0
 20
1418.0
 10
2226.0
 20
1418.0
 10
2226.0
 20
1400.0
  0
LWPOLYLINE
  5
E5
330
17
100
AcDbEntity
  8
03_DASHED_BOARD
  6
DASHED
100
AcDbPolyline
 90
5
 70
0
 10
2226.0
 20
2482.0
 10
3012.0
 20
2482.0
 10
3012.0
 20
2500.0
 10
2226.0
 20
2500.0
 10
2226.0
 20
2482.0
  0
LWPOLYLINE
  5
E6
330
17
100
AcDbEntity
  8
03_DASHED_BOARD
  6
DASHED
100
AcDbPolyline
 90
5
 70
0
 10
2226.0
 20
1760.0
 10
3012.0
 20
1760.0
 10
3012.0
 20
1778.0
 10
2226.0
 20
1778.0
 10
2226.0
 20
1760.0
  0
LWPOLYLINE
  5
E7
330
17
100
AcDbEntity
  8
03_DASHED_BOARD
  6
DASHED
100
AcDbPolyline
 90
5
 70
0
 10
2226.0
 20
2120.0
 10
3012.0
 20
2120.0
 10
3012.0
 20
2138.0
 10
2226.0
 20
2138.0
 10
2226.0
 20
2120.0
  0
LWPOLYLINE
  5
E8
330
17
100
AcDbEntity
  8
04_DOOR_LINES
100
AcDbPolyline
 90
3
 70
0
 10
2226.0
 20
1380.0
 10
2619.0
 20
1940.0
 10
2226.0
 20
2500.0
  0
LWPOLYLINE
  5
E9
330
17
100
AcDbEntity
  8
04_DOOR_LINES
100
AcDbPolyline
 90
3
 70
0
 10
3012.0
 20
1380.0
 10
2619.0
 20
1940.0
 10
3012.0
 20
2500.0
  0
MTEXT
  5
EA
330
17
100
AcDbEntity
  8
06_LED_STRIP
100
AcDbMText
 10
2619.0
 20
1940.0
 30
0.0
 40
28.0
 71
5
  1
\U+6309\U+5f39\U+5668
  7
CHINESE
  0
LINE
  5
EB
330
17
100
AcDbEntity
  8
06_LED_STRIP
  6
DASHED
100
AcDbLine
 10
2236.0
 20
1398.0
 30
0.0
 11
3002.0
 21
1398.0
 31
0.0
  0
MTEXT
  5
EC
330
17
100
AcDbEntity
  8
06_LED_STRIP
100
AcDbMText
 10
2619.0
 20
1380.0
 30
0.0
 40
20.0
 71
5
  1
LED\U+6697\U+85cf\U+706f\U+5e26
  7
CHINESE
  0
LWPOLYLINE
  5
ED
330
17
100
AcDbEntity
  8
02_CABINET
100
AcDbPolyline
 90
5
 70
0
 10
0.0
 20
-1600.0
 10
3080.0
 20
-1600.0
 10
3080.0
 20
-1200.0
 10
0.0
 20
-1200.0
 10
0.0
 20
-1600.0
  0
MTEXT
  5
EE
330
17
100
AcDbEntity
  8
09_TEXT
100
AcDbMText
 10
1540.0
 20
-1700.0
 30
0.0
 40
40.0
 71
5
  1
\U+4fef\U+5256\U+89c6\U+56fe (\U+5256\U+5207\U+4f4d\U+7f6e: \U+4e0b\U+67dc)
  7
CHINESE
  0
LWPOLYLINE
  5
EF
330
17
100
AcDbEntity
  8
02_CABINET
100
AcDbPolyline
 90
5
 70
0
 10
0.0
 20
-1580.0
 10
18.0
 20
-1580.0
 10
18.0
 20
-1218.0
 10
0.0
 20
-1218.0
 10
0.0
 20
-1580.0
  0
LWPOLYLINE
  5
F0
330
17
100
AcDbEntity
  8
03_DASHED_BOARD
  6
DASHED
100
AcDbPolyline
 90
5
 70
0
 10
600.0
 20
-1580.0
 10
618.0
 20
-1580.0
 10
618.0
 20
-1218.0
 10
600.0
 20
-1218.0
 10
600.0
 20
-1580.0
  0
LWPOLYLINE
  5
F1
330
17
100
AcDbEntity
  8
03_DASHED_BOARD
  6
DASHED
100
AcDbPolyline
 90
5
 70
0
 10
1404.0
 20
-1580.0
 10
1422.0
 20
-1580.0
 10
1422.0
 20
-1218.0
 10
1404.0
 20
-1218.0
 10
1404.0
 20
-1580.0
  0
LWPOLYLINE
  5
F2
330
17
100
AcDbEntity
  8
03_DASHED_BOARD
  6
DASHED
100
AcDbPolyline
 90
5
 70
0
 10
2208.0
 20
-1580.0
 10
2226.0
 20
-1580.0
 10
2226.0
 20
-1218.0
 10
2208.0
 20
-1218.0
 10
2208.0
 20
-1580.0
  0
LWPOLYLINE
  5
F3
330
17
100
AcDbEntity
  8
02_CABINET
100
AcDbPolyline
 90
5
 70
0
 10
3012.0
 20
-1580.0
 10
3030.0
 20
-1580.0
 10
3030.0
 20
-1218.0
 10
3012.0
 20
-1218.0
 10
3012.0
 20
-1580.0
  0
LWPOLYLINE
  5
F4
330
17
100
AcDbEntity
  8
04_DOOR_LINES
100
AcDbPolyline
 90
5
 70
0
 10
0.0
 20
-1600.0
 10
3030.0
 20
-1600.0
 10
3030.0
 20
-1580.0
 10
0.0
 20
-1580.0
 10
0.0
 20
-1600.0
  0
LWPOLYLINE
  5
F5
330
17
100
AcDbEntity
  8
02_CABINET
100
AcDbPolyline
 90
5
 70
0
 10
0.0
 20
-1218.0
 10
3030.0
 20
-1218.0
 10
3030.0
 20
-1200.0
 10
0.0
 20
-1200.0
 10
0.0
 20
-1218.0
  0
MTEXT
  5
F6
330
17
100
AcDbEntity
  8
09_TEXT
100
AcDbMText
 10
-1000.0
 20
2650.0
 30
0.0
 40
40.0
 71
5
  1
\U+5de6\U+5256\U+89c6\U+56fe (\U+5256\U+5207\U+4f4d\U+7f6e: \U+64cd\U+4f5c\U+533a)
  7
CHINESE
  0
LWPOLYLINE
  5
F7
330
17
100
AcDbEntity
  8
02_CABINET
100
AcDbPolyline
 90
5
 70
0
 10
-1170.0
 20
0.0
 10
-800.0
 20
0.0
 10
-800.0
 20
80.0
 10
-1170.0
 20
80.0
 10
-1170.0
 20
0.0
  0
LWPOLYLINE
  5
F8
330
17
100
AcDbEntity
  8
02_CABINET
100
AcDbPolyline
 90
5
 70
0
 10
-1200.0
 20
80.0
 10
-800.0
 20
80.0
 10
-800.0
 20
830.0
 10
-1200.0
 20
830.0
 10
-1200.0
 20
80.0
  0
LWPOLYLINE
  5
F9
330
17
100
AcDbEntity
  8
02_CABINET
100
AcDbPolyline
 90
5
 70
0
 10
-1200.0
 20
830.0
 10
-800.0
 20
830.0
 10
-800.0
 20
850.0
 10
-1200.0
 20
850.0
 10
-1200.0
 20
830.0
  0
LWPOLYLINE
  5
FA
330
17
100
AcDbEntity
  8
02_CABINET
100
AcDbPolyline
 90
5
 70
0
 10
-1100.0
 20
1400.0
 10
-800.0
 20
1400.0
 10
-800.0
 20
2500.0
 10
-1100.0
 20
2500.0
 10
-1100.0
 20
1400.0
  0
LWPOLYLINE
  5
FB
330
17
100
AcDbEntity
  8
01_FILLER
100
AcDbPolyline
 90
5
 70
0
 10
-1100.0
 20
2500.0
 10
-800.0
 20
2500.0
 10
-800.0
 20
2550.0
 10
-1100.0
 20
2550.0
 10
-1100.0
 20
2500.0
  0
LWPOLYLINE
  5
FC
330
17
100
AcDbEntity
  8
03_DASHED_BOARD
  6
DASHED
100
AcDbPolyline
 90
5
 70
0
 10
-1180.0
 20
80.0
 10
-818.0
 20
80.0
 10
-818.0
 20
98.0
 10
-1180.0
 20
98.0
 10
-1180.0
 20
80.0
  0
LWPOLYLINE
  5
FD
330
17
100
AcDbEntity
  8
03_DASHED_BOARD
  6
DASHED
100
AcDbPolyline
 90
5
 70
0
 10
-1180.0
 20
812.0
 10
-818.0
 20
812.0
 10
-818.0
 20
830.0
 10
-1180.0
 20
830.0
 10
-1180.0
 20
812.0
  0
LWPOLYLINE
  5
FE
330
17
100
AcDbEntity
  8
03_DASHED_BOARD
  6
DASHED
100
AcDbPolyline
 90
5
 70
0
 10
-1080.0
 20
1400.0
 10
-818.0
 20
1400.0
 10
-818.0
 20
1418.0
 10
-1080.0
 20
1418.0
 10
-1080.0
 20
1400.0
  0
LWPOLYLINE
  5
FF
330
17
100
AcDbEntity
  8
03_DASHED_BOARD
  6
DASHED
100
AcDbPolyline
 90
5
 70
0
 10
-1080.0
 20
1760.0
 10
-818.0
 20
1760.0
 10
-818.0
 20
1778.0
 10
-1080.0
 20
1778.0
 10
-1080.0
 20
1760.0
  0
LWPOLYLINE
  5
100
330
17
100
AcDbEntity
  8
03_DASHED_BOARD
  6
DASHED
100
AcDbPolyline
 90
5
 70
0
 10
-1080.0
 20
2120.0
 10
-818.0
 20
2120.0
 10
-818.0
 20
2138.0
 10
-1080.0
 20
2138.0
 10
-1080.0
 20
2120.0
  0
LWPOLYLINE
  5
101
330
17
100
AcDbEntity
  8
03_DASHED_BOARD
  6
DASHED
100
AcDbPolyline
 90
5
 70
0
 10
-1080.0
 20
2482.0
 10
-818.0
 20
2482.0
 10
-818.0
 20
2500.0
 10
-1080.0
 20
2500.0
 10
-1080.0
 20
2482.0
  0
LWPOLYLINE
  5
102
330
17
100
AcDbEntity
  8
04_DOOR_LINES
100
AcDbPolyline
 90
5
 70
0
 10
-1120.0
 20
1380.0
 10
-1100.0
 20
1380.0
 10
-1100.0
 20
2500.0
 10
-1120.0
 20
2500.0
 10
-1120.0
 20
1380.0
  0
DIMENSION
  5
103
330
17
100
AcDbEntity
  8
08_DIMENSIONS
100
AcDbDimension
  2
*D1
  3
Standard
 10
0.0
 20
2750.0
 30
0.0
 11
9.0
 21
2765.625
 31
0.0
 70
32
 71
5
  1
<>
100
AcDbAlignedDimension
 13
0.0
 23
2550.0
 33
0.0
 14
18.0
 24
2550.0
 34
0.0
 50
0.0
100
AcDbRotatedDimension
  0
DIMENSION
  5
114
330
17
100
AcDbEntity
  8
08_DIMENSIONS
100
AcDbDimension
  2
*D2
  3
Standard
 10
18.0
 20
2750.0
 30
0.0
 11
309.0
 21
2750.0
 31
0.0
 70
32
 71
5
  1
<>
100
AcDbAlignedDimension
 13
18.0
 23
2550.0
 33
0.0
 14
600.0
 24
2550.0
 34
0.0
 50
0.0
100
AcDbRotatedDimension
  0
DIMENSION
  5
124
330
17
100
AcDbEntity
  8
08_DIMENSIONS
100
AcDbDimension
  2
*D3
  3
Standard
 10
600.0
 20
2750.0
 30
0.0
 11
609.0
 21
2765.625
 31
0.0
 70
32
 71
5
  1
<>
100
AcDbAlignedDimension
 13
600.0
 23
2550.0
 33
0.0
 14
618.0
 24
2550.0
 34
0.0
 50
0.0
100
AcDbRotatedDimension
  0
DIMENSION
  5
135
330
17
100
AcDbEntity
  8
08_DIMENSIONS
100
AcDbDimension
  2
*D4
  3
Standard
 10
618.0
 20
2750.0
 30
0.0
 11
1011.0
 21
2750.0
 31
0.0
 70
32
 71
5
  1
<>
100
AcDbAlignedDimension
 13
618.0
 23
2550.0
 33
0.0
 14
1404.0
 24
2550.0
 34
0.0
 50
0.0
100
AcDbRotatedDimension
  0
DIMENSION
  5
145
330
17
100
AcDbEntity
  8
08_DIMENSIONS
100
AcDbDimension
  2
*D5
  3
Standard
 10
1404.0
 20
2750.0
 30
0.0
 11
1413.0
 21
2765.625
 31
0.0
 70
32
 71
5
  1
<>
100
AcDbAlignedDimension
 13
1404.0
 23
2550.0
 33
0.0
 14
1422.0
 24
2550.0
 34
0.0
 50
0.0
100
AcDbRotatedDimension
  0
DIMENSION
  5
156
330
17
100
AcDbEntity
  8
08_DIMENSIONS
100
AcDbDimension
  2
*D6
  3
Standard
 10
1422.0
 20
2750.0
 30
0.0
 11
1815.0
 21
2750.0
 31
0.0
 70
32
 71
5
  1
<>
100
AcDbAlignedDimension
 13
1422.0
 23
2550.0
 33
0.0
 14
2208.0
 24
2550.0
 34
0.0
 50
0.0
100
AcDbRotatedDimension
  0
DIMENSION
  5
166
330
17
100
AcDbEntity
  8
08_DIMENSIONS
100
AcDbDimension
  2
*D7
  3
Standard
 10
2208.0
 20
2750.0
 30
0.0
 11
2217.0
 21
2765.625
 31
0.0
 70
32
 71
5
  1
<>
100
AcDbAlignedDimension
 13
2208.0
 23
2550.0
 33
0.0
 14
2226.0
 24
2550.0
 34
0.0
 50
0.0
100
AcDbRotatedDimension
  0
DIMENSION
  5
177
330
17
100
AcDbEntity
  8
08_DIMENSIONS
100
AcDbDimension
  2
*D8
  3
Standard
 10
2226.0
 20
2750.0
 30
0.0
 11
2628.0
 21
2750.0
 31
0.0
 70
32
 71
5
  1
<>
100
AcDbAlignedDimension
 13
2226.0
 23
2550.0
 33
0.0
 14
3030.0
 24
2550.0
 34
0.0
 50
0.0
100
AcDbRotatedDimension
  0
DIMENSION
  5
187
330
17
100
AcDbEntity
  8
08_DIMENSIONS
100
AcDbDimension
  2
*D9
  3
Standard
 10
3030.0
 20
2750.0
 30
0.0
 11
3055.0
 21
2765.625
 31
0.0
 70
32
 71
5
  1
<>
100
AcDbAlignedDimension
 13
3030.0
 23
2550.0
 33
0.0
 14
3080.0
 24
2550.0
 34
0.0
 50
0.0
100
AcDbRotatedDimension
  0
DIMENSION
  5
196
330
17
100
AcDbEntity
  8
08_DIMENSIONS
100
AcDbDimension
  2
*D10
  3
Standard
 10
0.0
 20
2900.0
 30
0.0
 11
1540.0
 21
2900.0
 31
0.0
 70
32
 71
5
  1
<>
100
AcDbAlignedDimension
 13
0.0
 23
2550.0
 33
0.0
 14
3080.0
 24
2550.0
 34
0.0
 50
0.0
100
AcDbRotatedDimension
  0
DIMENSION
  5
1A6
330
17
100
AcDbEntity
  8
08_DIMENSIONS
100
AcDbDimension
  2
*D11
  3
Standard
 10
3280.0
 20
0.0
 30
0.0
 11
3264.375
 21
40.0
 31
0.0
 70
32
 71
5
  1
<>
100
AcDbAlignedDimension
 13
3080.0
 23
0.0
 33
0.0
 14
3080.0
 24
80.0
 34
0.0
 50
90.0
100
AcDbRotatedDimension
  0
DIMENSION
  5
1B5
330
17
100
AcDbEntity
  8
08_DIMENSIONS
100
AcDbDimension
  2
*D12
  3
Standard
 10
3280.0
 20
80.0
 30
0.0
 11
3280.0
 21
455.0
 31
0.0
 70
32
 71
5
  1
<>
100
AcDbAlignedDimension
 13
3080.0
 23
80.0
 33
0.0
 14
3080.0
 24
830.0
 34
0.0
 50
90.0
100
AcDbRotatedDimension
  0
DIMENSION
  5
1C5
330
17
100
AcDbEntity
  8
08_DIMENSIONS
100
AcDbDimension
  2
*D13
  3
Standard
 10
3280.0
 20
830.0
 30
0.0
 11
3264.375
 21
840.0
 31
0.0
 70
32
 71
5
  1
<>
100
AcDbAlignedDimension
 13
3080.0
 23
830.0
 33
0.0
 14
3080.0
 24
850.0
 34
0.0
 50
90.0
100
AcDbRotatedDimension
  0
DIMENSION
  5
1D6
330
17
100
AcDbEntity
  8
08_DIMENSIONS
100
AcDbDimension
  2
*D14
  3
Standard
 10
3280.0
 20
850.0
 30
0.0
 11
3280.0
 21
1125.0
 31
0.0
 70
32
 71
5
  1
<>
100
AcDbAlignedDimension
 13
3080.0
 23
850.0
 33
0.0
 14
3080.0
 24
1400.0
 34
0.0
 50
90.0
100
AcDbRotatedDimension
  0
DIMENSION
  5
1E6
330
17
100
AcDbEntity
  8
08_DIMENSIONS
100
AcDbDimension
  2
*D15
  3
Standard
 10
3280.0
 20
1400.0
 30
0.0
 11
3280.0
 21
1950.0
 31
0.0
 70
32
 71
5
  1
<>
100
AcDbAlignedDimension
 13
3080.0
 23
1400.0
 33
0.0
 14
3080.0
 24
2500.0
 34
0.0
 50
90.0
100
AcDbRotatedDimension
  0
DIMENSION
  5
1F6
330
17
100
AcDbEntity
  8
08_DIMENSIONS
100
AcDbDimension
  2
*D16
  3
Standard
 10
3280.0
 20
2500.0
 30
0.0
 11
3264.375
 21
2525.0
 31
0.0
 70
32
 71
5
  1
<>
100
AcDbAlignedDimension
 13
3080.0
 23
2500.0
 33
0.0
 14
3080.0
 24
2550.0
 34
0.0
 50
90.0
100
AcDbRotatedDimension
  0
DIMENSION
  5
205
330
17
100
AcDbEntity
  8
08_DIMENSIONS
100
AcDbDimension
  2
*D17
  3
Standard
 10
3430.0
 20
0.0
 30
0.0
 11
3430.0
 21
1275.0
 31
0.0
 70
32
 71
5
  1
<>
100
AcDbAlignedDimension
 13
3080.0
 23
0.0
 33
0.0
 14
3080.0
 24
2550.0
 34
0.0
 50
90.0
100
AcDbRotatedDimension
  0
MTEXT
  5
215
330
17
100
AcDbEntity
  8
09_TEXT
100
AcDbMText
 10
3880.0
 20
1355.0
 30
0.0
 40
30.0
 71
7
  3
\U+73b0\U+4ee3\U+8f7b\U+5962\U+9910\U+8fb9\U+67dc \U+5de5\U+827a\U+89e3\U+6790\P\P1. \U+7a7a\U+95f4\U+89c4\U+5212\U+ff1a\U+603b\U+5bbd3080mm\U+ff0c\U+79d1\U+5b66\U+5212\U+5206600\U+9ad8\U+67dc\U+533a\U+4e0e\U+53f0\U+9762\U+64cd\U+4f5c\U+533a\U+ff0c\U+52a8\U+7ebf\U+5408\U+7406\U+3002\P\P2. \U+6df1\U+5ea6\U+5de5\U+827a\U+ff1a\U+4e0b\U+67dc\U+6df1400mm\U+ff0c\U+64cd\U+4f5c\U+53f0\U+9762400mm\U+ff0c\U+4e0a\U+67dc\U+6df1300mm\U+9f50\U+5e73\U+53cc\U+773c\U+76ae\U+540a\U+9876\U+3002\P\P3. \U+4e94\U+91d1\U+914d\U+7f6e\U+ff1a\U+5168\U+67dc\U+65e0\U+62c9\U+624b\U+8bbe\U+8ba1\U+3002\U+540a\U+67dc\U+4e0b\U+630220mm\U+914d\U+6309\U+5f39\U+5668\U+ff0c\U+5730\U+67dc\U+62bd\U+5c49\U+514d\U+62c9\U+624b\U+3002\P\P4. \U+6750\U+8d28\U+5de5\U+827a\U+ff1a\U+5de6\U+4fa7\U+7070\U+73bb\U+94dd\U+6846\U+95e8\U+ff0c\U+4e2d\U+95f420mm\U+6781\U+7b80\U+5ca9\U+677f\U+53f0\U+9762\U+ff0c\U+6728\U+4f5c\U+51c6\U+5206\U+5b50\U+95e8\U+677f\U+3002\P\P5. \U+706f\U+5149\U+7cfb\U+7edf\U+ff1a\U+6bcf\U+4e00\U+5c42\U+73bb\U+7483\U+53ef\U+89c6\U+533a\U+4e0e\U+64cd\U+4f5c\U+53f0\U+5e95\U+90e8\U+ff0c\U+5747\U+6697\U+85cf 4000K LED \U+53d1\U+5149\U+6761\U+3002\P\P6. \U+6536\U+53e3\U+89c4\U+8303\U+ff1a\U+5e95\U+90e8\U+6a2a\U+8d2f\U+8e22\U+811a\U+7ebf\U+9632\U+6f6e
  1
\U+ff0c\U+53f3\U+4fa750mm\U+5c01\U+677f\U+5b8c\U+7f8e\U+8d34\U+9760\U+5899\U+4f53\U+3002
  7
CHINESE
  0
ENDSEC
  0
SECTION
  2
OBJECTS
  0
DICTIONARY
  5
A
330
0
100
AcDbDictionary
281
1
  3
ACAD_COLOR
350
B
  3
ACAD_GROUP
350
C
  3
ACAD_LAYOUT
350
D
  3
ACAD_MATERIAL
350
E
  3
ACAD_MLEADERSTYLE
350
F
  3
ACAD_MLINESTYLE
350
10
  3
ACAD_PLOTSETTINGS
350
11
  3
ACAD_PLOTSTYLENAME
350
12
  3
ACAD_SCALELIST
350
14
  3
ACAD_TABLESTYLE
350
15
  3
ACAD_VISUALSTYLE
350
16
  3
EZDXF_META
350
2D
  0
DICTIONARY
  5
B
330
A
100
AcDbDictionary
281
1
  0
DICTIONARY
  5
C
330
A
100
AcDbDictionary
281
1
  0
DICTIONARY
  5
D
330
A
100
AcDbDictionary
281
1
  3
Model
350
1A
  3
Layout1
350
1E
  0
DICTIONARY
  5
E
330
A
100
AcDbDictionary
281
1
  3
ByBlock
350
1F
  3
ByLayer
350
20
  3
Global
350
21
  0
DICTIONARY
  5
F
330
A
100
AcDbDictionary
281
1
  3
Standard
350
2C
  0
DICTIONARY
  5
10
330
A
100
AcDbDictionary
281
1
  3
Standard
350
22
  0
DICTIONARY
  5
11
330
A
100
AcDbDictionary
281
1
  0
ACDBDICTIONARYWDFLT
  5
12
330
A
100
AcDbDictionary
281
1
  3
Normal
350
13
100
AcDbDictionaryWithDefault
340
13
  0
ACDBPLACEHOLDER
  5
13
330
12
  0
DICTIONARY
  5
14
330
A
100
AcDbDictionary
281
1
  0
DICTIONARY
  5
15
330
A
100
AcDbDictionary
281
1
  0
DICTIONARY
  5
16
330
A
100
AcDbDictionary
281
1
  3
2dWireframe
350
5A
  3
Basic
350
5B
  3
Brighten
350
5C
  3
ColorChange
350
5D
  3
Conceptual
350
5E
  3
Dim
350
5F
  3
EdgeColorOff
350
60
  3
Facepattern
350
61
  3
Flat
350
62
  3
FlatWithEdges
350
63
  3
Gouraud
350
64
  3
GouraudWithEdges
350
65
  3
Hidden
350
66
  3
JitterOff
350
67
  3
Linepattern
350
68
  3
Modeling
350
69
  3
OverhangOff
350
6A
  3
Realistic
350
6B
  3
Shaded
350
6C
  3
Shaded with edges
350
6D
  3
Shades of Gray
350
6E
  3
Sketchy
350
6F
  3
Thicken
350
70
  3
Wireframe
350
71
  3
X-Ray
350
72
  0
LAYOUT
  5
1A
330
D
100
AcDbPlotSettings
  1

  4
A3
  6

 40
7.5
 41
20.0
 42
7.5
 43
20.0
 44
420.0
 45
297.0
 46
0.0
 47
0.0
 48
0.0
 49
0.0
140
0.0
141
0.0
142
1.0
143
1.0
 70
1024
 72
1
 73
0
 74
5
  7

 75
16
 76
0
 77
2
 78
300
147
1.0
148
0.0
149
0.0
100
AcDbLayout
  1
Model
 70
1
 71
0
 10
0.0
 20
0.0
 11
420.0
 21
297.0
 12
0.0
 22
0.0
 32
0.0
 14
1e+20
 24
1e+20
 34
1e+20
 15
-1e+20
 25
-1e+20
 35
-1e+20
146
0.0
 13
0.0
 23
0.0
 33
0.0
 16
1.0
 26
0.0
 36
0.0
 17
0.0
 27
1.0
 37
0.0
 76
1
330
17
  0
LAYOUT
  5
1E
330
D
100
AcDbPlotSettings
  1

  4
A3
  6

 40
7.5
 41
20.0
 42
7.5
 43
20.0
 44
420.0
 45
297.0
 46
0.0
 47
0.0
 48
0.0
 49
0.0
140
0.0
141
0.0
142
1.0
143
1.0
 70
0
 72
1
 73
0
 74
5
  7

 75
16
 76
0
 77
2
 78
300
147
1.0
148
0.0
149
0.0
100
AcDbLayout
  1
Layout1
 70
1
 71
1
 10
0.0
 20
0.0
 11
420.0
 21
297.0
 12
0.0
 22
0.0
 32
0.0
 14
1e+20
 24
1e+20
 34
1e+20
 15
-1e+20
 25
-1e+20
 35
-1e+20
146
0.0
 13
0.0
 23
0.0
 33
0.0
 16
1.0
 26
0.0
 36
0.0
 17
0.0
 27
1.0
 37
0.0
 76
1
330
1B
  0
MATERIAL
  5
1F
102
{ACAD_REACTORS
330
E
102
}
330
E
100
AcDbMaterial
  1
ByBlock
  2

 70
0
 40
1.0
 71
1
 41
1.0
 91
-1023410177
 42
1.0
 72
1
  3

 73
1
 74
1
 75
1
 44
0.5
 73
0
 45
1.0
 46
1.0
 77
1
  4

 78
1
 79
1
170
1
 48
1.0
171
1
  6

172
1
173
1
174
1
140
1.0
141
1.0
175
1
  7

176
1
177
1
178
1
143
1.0
179
1
  8

270
1
271
1
272
1
145
1.0
146
1.0
273
1
  9

274
1
275
1
276
1
 42
1.0
 72
1
  3

 73
1
 74
1
 75
1
 94
63
  0
MATERIAL
  5
20
102
{ACAD_REACTORS
330
E
102
}
330
E
100
AcDbMaterial
  1
ByLayer
  2

 70
0
 40
1.0
 71
1
 41
1.0
 91
-1023410177
 42
1.0
 72
1
  3

 73
1
 74
1
 75
1
 44
0.5
 73
0
 45
1.0
 46
1.0
 77
1
  4

 78
1
 79
1
170
1
 48
1.0
171
1
  6

172
1
173
1
174
1
140
1.0
141
1.0
175
1
  7

176
1
177
1
178
1
143
1.0
179
1
  8

270
1
271
1
272
1
145
1.0
146
1.0
273
1
  9

274
1
275
1
276
1
 42
1.0
 72
1
  3

 73
1
 74
1
 75
1
 94
63
  0
MATERIAL
  5
21
102
{ACAD_REACTORS
330
E
102
}
330
E
100
AcDbMaterial
  1
Global
  2

 70
0
 40
1.0
 71
1
 41
1.0
 91
-1023410177
 42
1.0
 72
1
  3

 73
1
 74
1
 75
1
 44
0.5
 73
0
 45
1.0
 46
1.0
 77
1
  4

 78
1
 79
1
170
1
 48
1.0
171
1
  6

172
1
173
1
174
1
140
1.0
141
1.0
175
1
  7

176
1
177
1
178
1
143
1.0
179
1
  8

270
1
271
1
272
1
145
1.0
146
1.0
273
1
  9

274
1
275
1
276
1
 42
1.0
 72
1
  3

 73
1
 74
1
 75
1
 94
63
  0
MLINESTYLE
  5
22
102
{ACAD_REACTORS
330
10
102
}
330
10
100
AcDbMlineStyle
  2
Standard
 70
0
  3

 62
256
 51
90.0
 52
90.0
 71
2
 49
0.5
 62
256
  6
BYLAYER
 49
-0.5
 62
256
  6
BYLAYER
  0
MLEADERSTYLE
  5
2C
102
{ACAD_REACTORS
330
F
102
}
330
F
100
AcDbMLeaderStyle
179
2
170
2
171
1
172
0
 90
2
 40
0.0
 41
0.0
173
1
 91
-1056964608
 92
-2
290
1
 42
2.0
291
1
 43
8.0
  3
Standard
 44
4.0
300

342
29
174
1
175
1
176
0
178
1
 93
-1056964608
 45
4.0
292
0
297
0
 46
4.0
 94
-1056964608
 47
1.0
 49
1.0
140
1.0
294
1
141
0.0
177
0
142
1.0
295
0
296
0
143
3.75
271
0
272
9
273
9
  0
DICTIONARY
  5
2D
330
A
100
AcDbDictionary
280
1
281
1
  3
CREATED_BY_EZDXF
350
2E
  3
WRITTEN_BY_EZDXF
350
218
  0
DICTIONARYVAR
  5
2E
330
2D
100
DictionaryVariables
280
0
  1
1.4.3 @ 2026-03-13T02:05:51.245149+00:00
  0
VISUALSTYLE
  5
5A
102
{ACAD_REACTORS
330
16
102
}
330
16
100
AcDbVisualStyle
  2
2dWireframe
 70
4
 90
0
 40
0.6
 62
7
290
0
291
0
  0
VISUALSTYLE
  5
5B
102
{ACAD_REACTORS
330
16
102
}
330
16
100
AcDbVisualStyle
  2
Basic
 70
7
 90
1
 40
0.6
 62
7
290
0
291
1
  0
VISUALSTYLE
  5
5C
102
{ACAD_REACTORS
330
16
102
}
330
16
100
AcDbVisualStyle
  2
Brighten
 70
12
 90
2
 40
0.6
 62
7
290
0
291
1
  0
VISUALSTYLE
  5
5D
102
{ACAD_REACTORS
330
16
102
}
330
16
100
AcDbVisualStyle
  2
ColorChange
 70
16
 90
2
 40
0.6
 62
8
290
0
291
1
  0
VISUALSTYLE
  5
5E
102
{ACAD_REACTORS
330
16
102
}
330
16
100
AcDbVisualStyle
  2
Conceptual
 70
9
 90
3
 40
0.6
 62
7
290
0
291
0
  0
VISUALSTYLE
  5
5F
102
{ACAD_REACTORS
330
16
102
}
330
16
100
AcDbVisualStyle
  2
Dim
 70
11
 90
2
 40
0.6
 62
7
290
0
291
1
  0
VISUALSTYLE
  5
60
102
{ACAD_REACTORS
330
16
102
}
330
16
100
AcDbVisualStyle
  2
EdgeColorOff
 70
22
 90
2
 40
0.6
 62
7
290
0
291
1
  0
VISUALSTYLE
  5
61
102
{ACAD_REACTORS
330
16
102
}
330
16
100
AcDbVisualStyle
  2
Facepattern
 70
15
 90
2
 40
0.6
 62
7
290
0
291
1
  0
VISUALSTYLE
  5
62
102
{ACAD_REACTORS
330
16
102
}
330
16
100
AcDbVisualStyle
  2
Flat
 70
0
 90
2
 40
0.6
 62
7
290
0
291
1
  0
VISUALSTYLE
  5
63
102
{ACAD_REACTORS
330
16
102
}
330
16
100
AcDbVisualStyle
  2
FlatWithEdges
 70
1
 90
2
 40
0.6
 62
7
290
0
291
1
  0
VISUALSTYLE
  5
64
102
{ACAD_REACTORS
330
16
102
}
330
16
100
AcDbVisualStyle
  2
Gouraud
 70
2
 90
2
 40
0.6
 62
7
290
0
291
1
  0
VISUALSTYLE
  5
65
102
{ACAD_REACTORS
330
16
102
}
330
16
100
AcDbVisualStyle
  2
GouraudWithEdges
 70
3
 90
2
 40
0.6
 62
7
290
0
291
1
  0
VISUALSTYLE
  5
66
102
{ACAD_REACTORS
330
16
102
}
330
16
100
AcDbVisualStyle
  2
Hidden
 70
6
 90
1
 40
0.6
 62
7
290
0
291
0
  0
VISUALSTYLE
  5
67
102
{ACAD_REACTORS
330
16
102
}
330
16
100
AcDbVisualStyle
  2
JitterOff
 70
20
 90
2
 40
0.6
 62
7
290
0
291
1
  0
VISUALSTYLE
  5
68
102
{ACAD_REACTORS
330
16
102
}
330
16
100
AcDbVisualStyle
  2
Linepattern
 70
14
 90
2
 40
0.6
 62
7
290
0
291
1
  0
VISUALSTYLE
  5
69
102
{ACAD_REACTORS
330
16
102
}
330
16
100
AcDbVisualStyle
  2
Modeling
 70
10
 90
2
 40
0.6
 62
7
290
0
291
0
  0
VISUALSTYLE
  5
6A
102
{ACAD_REACTORS
330
16
102
}
330
16
100
AcDbVisualStyle
  2
OverhangOff
 70
21
 90
2
 40
0.6
 62
7
290
0
291
1
  0
VISUALSTYLE
  5
6B
102
{ACAD_REACTORS
330
16
102
}
330
16
100
AcDbVisualStyle
  2
Realistic
 70
8
 90
2
 40
0.6
 62
7
290
0
291
0
  0
VISUALSTYLE
  5
6C
102
{ACAD_REACTORS
330
16
102
}
330
16
100
AcDbVisualStyle
  2
Shaded
 70
27
 90
2
 40
0.6
 62
7
290
0
291
0
  0
VISUALSTYLE
  5
6D
102
{ACAD_REACTORS
330
16
102
}
330
16
100
AcDbVisualStyle
  2
Shaded with edges
 70
26
 90
2
 40
0.6
 62
7
290
0
291
0
  0
VISUALSTYLE
  5
6E
102
{ACAD_REACTORS
330
16
102
}
330
16
100
AcDbVisualStyle
  2
Shades of Gray
 70
23
 90
2
 40
0.6
 62
7
290
0
291
0
  0
VISUALSTYLE
  5
6F
102
{ACAD_REACTORS
330
16
102
}
330
16
100
AcDbVisualStyle
  2
Sketchy
 70
24
 90
1
 40
0.6
 62
7
290
0
291
0
  0
VISUALSTYLE
  5
70
102
{ACAD_REACTORS
330
16
102
}
330
16
100
AcDbVisualStyle
  2
Thicken
 70
13
 90
2
 40
0.6
 62
7
290
0
291
1
  0
VISUALSTYLE
  5
71
102
{ACAD_REACTORS
330
16
102
}
330
16
100
AcDbVisualStyle
  2
Wireframe
 70
5
 90
0
 40
0.6
 62
7
290
0
291
0
  0
VISUALSTYLE
  5
72
102
{ACAD_REACTORS
330
16
102
}
330
16
100
AcDbVisualStyle
  2
X-Ray
 70
25
 90
2
 40
0.5
 62
7
290
0
291
0
  0
DICTIONARYVAR
  5
218
330
2D
100
DictionaryVariables
280
0
  1
1.4.3 @ 2026-03-13T02:05:51.295986+00:00
  0
ENDSEC
  0
EOF
